<svg width="67" height="65" viewBox="0 0 67 65" fill="none" xmlns="http://www.w3.org/2000/svg">
<rect y="1" width="64" height="64" rx="15" fill="white" fill-opacity="0.05"/>
<rect x="28" y="12" width="30" height="30" rx="15" fill="#7C1472"/>
<g filter="url(#filter0_bdi_36_40)">
<mask id="path-3-inside-1_36_40" fill="white">
<path fill-rule="evenodd" clip-rule="evenodd" d="M24 26C24.2652 26 24.5196 25.8946 24.7071 25.7071C24.8946 25.5196 25 25.2652 25 25V19C25 18.7348 24.8946 18.4804 24.7071 18.2929C24.5196 18.1054 24.2652 18 24 18C23.7348 18 23.4804 18.1054 23.2929 18.2929C23.1054 18.4804 23 18.7348 23 19V25C23 25.2652 23.1054 25.5196 23.2929 25.7071C23.4804 25.8946 23.7348 26 24 26ZM46.25 22H42.25V25C42.25 25.2889 42.1931 25.575 42.0825 25.8419C41.972 26.1088 41.8099 26.3513 41.6056 26.5556C41.4014 26.7599 41.1588 26.922 40.8919 27.0325C40.625 27.1431 40.3389 27.2 40.05 27.2C39.7611 27.2 39.475 27.1431 39.2081 27.0325C38.9412 26.922 38.6987 26.7599 38.4944 26.5556C38.2901 26.3513 38.128 26.1088 38.0175 25.8419C37.9069 25.575 37.85 25.2889 37.85 25V22H26.2V25C26.2 25.5835 25.9682 26.143 25.5556 26.5556C25.1431 26.9682 24.5835 27.2 24 27.2C23.4165 27.2 22.857 26.9682 22.4444 26.5556C22.0318 26.143 21.8 25.5835 21.8 25V22H17.8C17.562 21.9973 17.3259 22.0423 17.1057 22.1325C16.8854 22.2226 16.6854 22.356 16.5176 22.5247C16.3498 22.6935 16.2175 22.8942 16.1286 23.1149C16.0397 23.3357 15.996 23.572 16 23.81V46.19C15.996 46.4238 16.0382 46.656 16.124 46.8735C16.2098 47.091 16.3376 47.2894 16.5001 47.4575C16.6626 47.6256 16.8566 47.76 17.0711 47.8531C17.2855 47.9462 17.5163 47.9961 17.75 48H46.25C46.4838 47.9961 46.7145 47.9462 46.9289 47.8531C47.1434 47.76 47.3374 47.6256 47.5 47.4575C47.6625 47.2894 47.7903 47.091 47.8761 46.8735C47.9619 46.656 48.004 46.4238 48 46.19V23.81C48.004 23.5762 47.9619 23.344 47.8761 23.1265C47.7903 22.909 47.6625 22.7106 47.5 22.5425C47.3374 22.3744 47.1434 22.24 46.9289 22.1469C46.7145 22.0538 46.4838 22.0039 46.25 22ZM24 42H22V40H24V42ZM24 37H22V35H24V37ZM24 32H22V30H24V32ZM30 42H28V40H30V42ZM30 37H28V35H30V37ZM30 32H28V30H30V32ZM36 42H34V40H36V42ZM36 37H34V35H36V37ZM36 32H34V30H36V32ZM42 42H40V40H42V42ZM42 37H40V35H42V37ZM42 32H40V30H42V32ZM40.7071 25.7071C40.5196 25.8946 40.2652 26 40 26C39.7348 26 39.4804 25.8946 39.2929 25.7071C39.1054 25.5196 39 25.2652 39 25V19C39 18.7348 39.1054 18.4804 39.2929 18.2929C39.4804 18.1054 39.7348 18 40 18C40.2652 18 40.5196 18.1054 40.7071 18.2929C40.8946 18.4804 41 18.7348 41 19V25C41 25.2652 40.8946 25.5196 40.7071 25.7071Z"/>
</mask>
<path fill-rule="evenodd" clip-rule="evenodd" d="M24 26C24.2652 26 24.5196 25.8946 24.7071 25.7071C24.8946 25.5196 25 25.2652 25 25V19C25 18.7348 24.8946 18.4804 24.7071 18.2929C24.5196 18.1054 24.2652 18 24 18C23.7348 18 23.4804 18.1054 23.2929 18.2929C23.1054 18.4804 23 18.7348 23 19V25C23 25.2652 23.1054 25.5196 23.2929 25.7071C23.4804 25.8946 23.7348 26 24 26ZM46.25 22H42.25V25C42.25 25.2889 42.1931 25.575 42.0825 25.8419C41.972 26.1088 41.8099 26.3513 41.6056 26.5556C41.4014 26.7599 41.1588 26.922 40.8919 27.0325C40.625 27.1431 40.3389 27.2 40.05 27.2C39.7611 27.2 39.475 27.1431 39.2081 27.0325C38.9412 26.922 38.6987 26.7599 38.4944 26.5556C38.2901 26.3513 38.128 26.1088 38.0175 25.8419C37.9069 25.575 37.85 25.2889 37.85 25V22H26.2V25C26.2 25.5835 25.9682 26.143 25.5556 26.5556C25.1431 26.9682 24.5835 27.2 24 27.2C23.4165 27.2 22.857 26.9682 22.4444 26.5556C22.0318 26.143 21.8 25.5835 21.8 25V22H17.8C17.562 21.9973 17.3259 22.0423 17.1057 22.1325C16.8854 22.2226 16.6854 22.356 16.5176 22.5247C16.3498 22.6935 16.2175 22.8942 16.1286 23.1149C16.0397 23.3357 15.996 23.572 16 23.81V46.19C15.996 46.4238 16.0382 46.656 16.124 46.8735C16.2098 47.091 16.3376 47.2894 16.5001 47.4575C16.6626 47.6256 16.8566 47.76 17.0711 47.8531C17.2855 47.9462 17.5163 47.9961 17.75 48H46.25C46.4838 47.9961 46.7145 47.9462 46.9289 47.8531C47.1434 47.76 47.3374 47.6256 47.5 47.4575C47.6625 47.2894 47.7903 47.091 47.8761 46.8735C47.9619 46.656 48.004 46.4238 48 46.19V23.81C48.004 23.5762 47.9619 23.344 47.8761 23.1265C47.7903 22.909 47.6625 22.7106 47.5 22.5425C47.3374 22.3744 47.1434 22.24 46.9289 22.1469C46.7145 22.0538 46.4838 22.0039 46.25 22ZM24 42H22V40H24V42ZM24 37H22V35H24V37ZM24 32H22V30H24V32ZM30 42H28V40H30V42ZM30 37H28V35H30V37ZM30 32H28V30H30V32ZM36 42H34V40H36V42ZM36 37H34V35H36V37ZM36 32H34V30H36V32ZM42 42H40V40H42V42ZM42 37H40V35H42V37ZM42 32H40V30H42V32ZM40.7071 25.7071C40.5196 25.8946 40.2652 26 40 26C39.7348 26 39.4804 25.8946 39.2929 25.7071C39.1054 25.5196 39 25.2652 39 25V19C39 18.7348 39.1054 18.4804 39.2929 18.2929C39.4804 18.1054 39.7348 18 40 18C40.2652 18 40.5196 18.1054 40.7071 18.2929C40.8946 18.4804 41 18.7348 41 19V25C41 25.2652 40.8946 25.5196 40.7071 25.7071Z" fill="white" fill-opacity="0.1" shape-rendering="crispEdges"/>
<path d="M24.7071 18.2929L24 19L24.7071 18.2929ZM23.2929 18.2929L24 19L23.2929 18.2929ZM42.25 22V21H41.25V22H42.25ZM46.25 22L46.2667 21.0001L46.2584 21H46.25V22ZM42.0825 25.8419L41.1587 25.4592L41.1587 25.4592L42.0825 25.8419ZM41.6056 26.5556L40.8985 25.8485L40.8985 25.8485L41.6056 26.5556ZM38.4944 26.5556L37.7873 27.2627L37.7873 27.2627L38.4944 26.5556ZM38.0175 25.8419L37.0936 26.2246L37.0936 26.2246L38.0175 25.8419ZM37.85 22H38.85V21H37.85V22ZM26.2 22V21H25.2V22H26.2ZM25.5556 26.5556L26.2628 27.2627L26.2628 27.2627L25.5556 26.5556ZM21.8 22H22.8V21H21.8V22ZM17.8 22L17.7886 23H17.8V22ZM17.1057 22.1325L17.4844 23.058L17.4844 23.058L17.1057 22.1325ZM16.5176 22.5247L17.2267 23.2299H17.2267L16.5176 22.5247ZM16.1286 23.1149L17.0562 23.4885L17.0562 23.4885L16.1286 23.1149ZM16 23.81H17V23.8015L16.9999 23.7931L16 23.81ZM16 46.19L16.9999 46.207L17 46.1985V46.19H16ZM16.124 46.8735L17.0542 46.5065L16.124 46.8735ZM17.0711 47.8531L16.6729 48.7704H16.6729L17.0711 47.8531ZM17.75 48L17.7333 48.9999L17.7417 49H17.75V48ZM46.25 48V49H46.2584L46.2667 48.9999L46.25 48ZM46.9289 47.8531L46.5308 46.9358L46.5308 46.9358L46.9289 47.8531ZM47.5 47.4575L46.781 46.7624L46.781 46.7624L47.5 47.4575ZM47.8761 46.8735L46.9458 46.5065L46.9458 46.5065L47.8761 46.8735ZM48 46.19H47V46.1985L47.0002 46.207L48 46.19ZM48 23.81L47.0002 23.793L47 23.8015V23.81H48ZM47.8761 23.1265L46.9458 23.4935L46.9458 23.4935L47.8761 23.1265ZM47.5 22.5425L46.781 23.2376L46.781 23.2376L47.5 22.5425ZM46.9289 22.1469L46.5308 23.0642L46.5308 23.0642L46.9289 22.1469ZM22 42H21V43H22V42ZM24 42V43H25V42H24ZM22 40V39H21V40H22ZM24 40H25V39H24V40ZM22 37H21V38H22V37ZM24 37V38H25V37H24ZM22 35V34H21V35H22ZM24 35H25V34H24V35ZM22 32H21V33H22V32ZM24 32V33H25V32H24ZM22 30V29H21V30H22ZM24 30H25V29H24V30ZM28 42H27V43H28V42ZM30 42V43H31V42H30ZM28 40V39H27V40H28ZM30 40H31V39H30V40ZM28 37H27V38H28V37ZM30 37V38H31V37H30ZM28 35V34H27V35H28ZM30 35H31V34H30V35ZM28 32H27V33H28V32ZM30 32V33H31V32H30ZM28 30V29H27V30H28ZM30 30H31V29H30V30ZM34 42H33V43H34V42ZM36 42V43H37V42H36ZM34 40V39H33V40H34ZM36 40H37V39H36V40ZM34 37H33V38H34V37ZM36 37V38H37V37H36ZM34 35V34H33V35H34ZM36 35H37V34H36V35ZM34 32H33V33H34V32ZM36 32V33H37V32H36ZM34 30V29H33V30H34ZM36 30H37V29H36V30ZM40 42H39V43H40V42ZM42 42V43H43V42H42ZM40 40V39H39V40H40ZM42 40H43V39H42V40ZM40 37H39V38H40V37ZM42 37V38H43V37H42ZM40 35V34H39V35H40ZM42 35H43V34H42V35ZM40 32H39V33H40V32ZM42 32V33H43V32H42ZM40 30V29H39V30H40ZM42 30H43V29H42V30ZM39.2929 18.2929L40 19L39.2929 18.2929ZM40.7071 18.2929L40 19L40.7071 18.2929ZM24 25V27C24.5304 27 25.0391 26.7893 25.4142 26.4142L24 25ZM24 25L25.4142 26.4142C25.7893 26.0391 26 25.5304 26 25H24ZM24 19V25H26V19H24ZM24 19V19H26C26 18.4696 25.7893 17.9609 25.4142 17.5858L24 19ZM24 19V19L25.4142 17.5858C25.0391 17.2107 24.5304 17 24 17V19ZM24 19L24 19V17C23.4696 17 22.9609 17.2107 22.5858 17.5858L24 19ZM24 19L24 19L22.5858 17.5858C22.2107 17.9609 22 18.4696 22 19H24ZM24 25V19H22V25H24ZM24 25H22C22 25.5304 22.2107 26.0391 22.5858 26.4142L24 25ZM24 25L22.5858 26.4142C22.9609 26.7893 23.4696 27 24 27V25ZM42.25 23H46.25V21H42.25V23ZM43.25 25V22H41.25V25H43.25ZM43.0064 26.2246C43.1672 25.8363 43.25 25.4202 43.25 25H41.25C41.25 25.1576 41.219 25.3136 41.1587 25.4592L43.0064 26.2246ZM42.3127 27.2627C42.6099 26.9656 42.8456 26.6128 43.0064 26.2246L41.1587 25.4592C41.0984 25.6048 41.01 25.7371 40.8985 25.8485L42.3127 27.2627ZM41.2746 27.9564C41.6628 27.7956 42.0156 27.5599 42.3128 27.2627L40.8985 25.8485C40.7871 25.96 40.6548 26.0483 40.5092 26.1086L41.2746 27.9564ZM40.05 28.2C40.4702 28.2 40.8864 28.1172 41.2746 27.9564L40.5092 26.1086C40.3636 26.169 40.2076 26.2 40.05 26.2V28.2ZM38.8254 27.9564C39.2137 28.1172 39.6298 28.2 40.05 28.2V26.2C39.8924 26.2 39.7364 26.169 39.5908 26.1086L38.8254 27.9564ZM37.7873 27.2627C38.0844 27.5599 38.4372 27.7956 38.8254 27.9564L39.5908 26.1086C39.4452 26.0483 39.3129 25.96 39.2015 25.8485L37.7873 27.2627ZM37.0936 26.2246C37.2544 26.6128 37.4901 26.9656 37.7873 27.2627L39.2015 25.8485C39.0901 25.7371 39.0017 25.6048 38.9414 25.4592L37.0936 26.2246ZM36.85 25C36.85 25.4202 36.9328 25.8363 37.0936 26.2246L38.9414 25.4592C38.8811 25.3136 38.85 25.1576 38.85 25H36.85ZM36.85 22V25H38.85V22H36.85ZM26.2 23H37.85V21H26.2V23ZM27.2 25V22H25.2V25H27.2ZM26.2628 27.2627C26.8629 26.6626 27.2 25.8487 27.2 25H25.2C25.2 25.3183 25.0736 25.6235 24.8485 25.8485L26.2628 27.2627ZM24 28.2C24.8487 28.2 25.6626 27.8629 26.2628 27.2627L24.8485 25.8485C24.6235 26.0736 24.3183 26.2 24 26.2V28.2ZM21.7373 27.2627C22.3374 27.8629 23.1513 28.2 24 28.2V26.2C23.6818 26.2 23.3765 26.0736 23.1515 25.8485L21.7373 27.2627ZM20.8 25C20.8 25.8487 21.1372 26.6626 21.7373 27.2627L23.1515 25.8485C22.9264 25.6235 22.8 25.3183 22.8 25H20.8ZM20.8 22V25H22.8V22H20.8ZM17.8 23H21.8V21H17.8V23ZM17.4844 23.058C17.5809 23.0185 17.6844 22.9987 17.7886 22.9999L17.8114 21.0001C17.4397 20.9958 17.071 21.0662 16.727 21.2069L17.4844 23.058ZM17.2267 23.2299C17.3002 23.1559 17.3878 23.0975 17.4844 23.058L16.727 21.2069C16.383 21.3477 16.0707 21.556 15.8086 21.8196L17.2267 23.2299ZM17.0562 23.4885C17.0952 23.3918 17.1532 23.3038 17.2267 23.2299L15.8086 21.8196C15.5465 22.0831 15.3399 22.3966 15.201 22.7414L17.0562 23.4885ZM16.9999 23.7931C16.9981 23.6888 17.0173 23.5852 17.0562 23.4885L15.201 22.7414C15.0622 23.0861 14.9939 23.4553 15.0002 23.8269L16.9999 23.7931ZM17 46.19V23.81H15V46.19H17ZM17.0542 46.5065C17.0166 46.4112 16.9981 46.3094 16.9999 46.207L15.0002 46.173C14.994 46.5381 15.0597 46.9008 15.1937 47.2405L17.0542 46.5065ZM17.219 46.7624C17.1478 46.6888 17.0918 46.6018 17.0542 46.5065L15.1937 47.2405C15.3277 47.5801 15.5273 47.8901 15.7812 48.1526L17.219 46.7624ZM17.4692 46.9358C17.3752 46.895 17.2902 46.8361 17.219 46.7624L15.7812 48.1526C16.035 48.4151 16.338 48.625 16.6729 48.7704L17.4692 46.9358ZM17.7667 47.0001C17.6643 46.9984 17.5632 46.9765 17.4692 46.9358L16.6729 48.7704C17.0079 48.9158 17.3682 48.9938 17.7333 48.9999L17.7667 47.0001ZM46.25 47H17.75V49H46.25V47ZM46.5308 46.9358C46.4368 46.9765 46.3357 46.9984 46.2333 47.0001L46.2667 48.9999C46.6318 48.9938 46.9921 48.9158 47.3271 48.7704L46.5308 46.9358ZM46.781 46.7624C46.7098 46.8361 46.6248 46.895 46.5308 46.9358L47.3271 48.7704C47.662 48.625 47.9651 48.4151 48.2189 48.1526L46.781 46.7624ZM46.9458 46.5065C46.9082 46.6018 46.8522 46.6888 46.781 46.7624L48.2189 48.1526C48.4727 47.8901 48.6723 47.5801 48.8063 47.2405L46.9458 46.5065ZM47.0002 46.207C47.0019 46.3094 46.9834 46.4112 46.9458 46.5065L48.8063 47.2405C48.9403 46.9008 49.0061 46.5381 48.9999 46.173L47.0002 46.207ZM47 23.81V46.19H49V23.81H47ZM46.9458 23.4935C46.9834 23.5888 47.0019 23.6906 47.0002 23.793L48.9999 23.827C49.0061 23.4619 48.9403 23.0992 48.8063 22.7595L46.9458 23.4935ZM46.781 23.2376C46.8522 23.3112 46.9082 23.3982 46.9458 23.4935L48.8063 22.7595C48.6723 22.4198 48.4727 22.1099 48.2189 21.8474L46.781 23.2376ZM46.5308 23.0642C46.6248 23.105 46.7098 23.1639 46.781 23.2376L48.2189 21.8474C47.9651 21.5849 47.662 21.3749 47.3271 21.2296L46.5308 23.0642ZM46.2333 22.9999C46.3357 23.0016 46.4368 23.0234 46.5308 23.0642L47.3271 21.2296C46.9921 21.0842 46.6318 21.0062 46.2667 21.0001L46.2333 22.9999ZM22 43H24V41H22V43ZM21 40V42H23V40H21ZM24 39H22V41H24V39ZM25 42V40H23V42H25ZM22 38H24V36H22V38ZM21 35V37H23V35H21ZM24 34H22V36H24V34ZM25 37V35H23V37H25ZM22 33H24V31H22V33ZM21 30V32H23V30H21ZM24 29H22V31H24V29ZM25 32V30H23V32H25ZM28 43H30V41H28V43ZM27 40V42H29V40H27ZM30 39H28V41H30V39ZM31 42V40H29V42H31ZM28 38H30V36H28V38ZM27 35V37H29V35H27ZM30 34H28V36H30V34ZM31 37V35H29V37H31ZM28 33H30V31H28V33ZM27 30V32H29V30H27ZM30 29H28V31H30V29ZM31 32V30H29V32H31ZM34 43H36V41H34V43ZM33 40V42H35V40H33ZM36 39H34V41H36V39ZM37 42V40H35V42H37ZM34 38H36V36H34V38ZM33 35V37H35V35H33ZM36 34H34V36H36V34ZM37 37V35H35V37H37ZM34 33H36V31H34V33ZM33 30V32H35V30H33ZM36 29H34V31H36V29ZM37 32V30H35V32H37ZM40 43H42V41H40V43ZM39 40V42H41V40H39ZM42 39H40V41H42V39ZM43 42V40H41V42H43ZM40 38H42V36H40V38ZM39 35V37H41V35H39ZM42 34H40V36H42V34ZM43 37V35H41V37H43ZM40 33H42V31H40V33ZM39 30V32H41V30H39ZM42 29H40V31H42V29ZM43 32V30H41V32H43ZM40 27C40.5304 27 41.0391 26.7893 41.4142 26.4142L40 25V27ZM38.5858 26.4142C38.9609 26.7893 39.4696 27 40 27V25H40L38.5858 26.4142ZM38 25C38 25.5304 38.2107 26.0391 38.5858 26.4142L40 25H40H38ZM38 19V25H40V19H38ZM38.5858 17.5858C38.2107 17.9609 38 18.4696 38 19H40L40 19L38.5858 17.5858ZM40 17C39.4696 17 38.9609 17.2107 38.5858 17.5858L40 19L40 19V17ZM41.4142 17.5858C41.0391 17.2107 40.5304 17 40 17V19V19L41.4142 17.5858ZM42 19C42 18.4696 41.7893 17.9609 41.4142 17.5858L40 19V19H42ZM42 25V19H40V25H42ZM41.4142 26.4142C41.7893 26.0391 42 25.5304 42 25H40L41.4142 26.4142Z" fill="#D9D9D9" fill-opacity="0.15" mask="url(#path-3-inside-1_36_40)"/>
</g>
<defs>
<filter id="filter0_bdi_36_40" x="4.99976" y="0" width="62.0005" height="60" filterUnits="userSpaceOnUse" color-interpolation-filters="sRGB">
<feFlood flood-opacity="0" result="BackgroundImageFix"/>
<feGaussianBlur in="BackgroundImageFix" stdDeviation="5"/>
<feComposite in2="SourceAlpha" operator="in" result="effect1_backgroundBlur_36_40"/>
<feColorMatrix in="SourceAlpha" type="matrix" values="0 0 0 0 0 0 0 0 0 0 0 0 0 0 0 0 0 0 127 0" result="hardAlpha"/>
<feOffset dx="4" dy="-3"/>
<feGaussianBlur stdDeviation="7.5"/>
<feComposite in2="hardAlpha" operator="out"/>
<feColorMatrix type="matrix" values="0 0 0 0 1 0 0 0 0 1 0 0 0 0 1 0 0 0 0.1 0"/>
<feBlend mode="normal" in2="effect1_backgroundBlur_36_40" result="effect2_dropShadow_36_40"/>
<feBlend mode="normal" in="SourceGraphic" in2="effect2_dropShadow_36_40" result="shape"/>
<feColorMatrix in="SourceAlpha" type="matrix" values="0 0 0 0 0 0 0 0 0 0 0 0 0 0 0 0 0 0 127 0" result="hardAlpha"/>
<feOffset dy="-5"/>
<feGaussianBlur stdDeviation="2.5"/>
<feComposite in2="hardAlpha" operator="arithmetic" k2="-1" k3="1"/>
<feColorMatrix type="matrix" values="0 0 0 0 0.862745 0 0 0 0 0.92549 0 0 0 0 1 0 0 0 0.15 0"/>
<feBlend mode="normal" in2="shape" result="effect3_innerShadow_36_40"/>
</filter>
</defs>
</svg>
