<svg width="170" height="76" viewBox="0 0 170 76" fill="none" xmlns="http://www.w3.org/2000/svg">
<path d="M165.927 19.624C165.563 19.7973 165.32 19.754 165.199 19.494C165.077 19.2513 165.008 18.9653 164.991 18.636C164.973 18.3067 164.965 18.0033 164.965 17.726C164.965 16.9287 165.034 16.0793 165.173 15.178C165.311 14.2593 165.467 13.384 165.641 12.552C165.814 11.7027 165.953 10.992 166.057 10.42C166.091 10.1947 166.126 9.978 166.161 9.77C166.195 9.54467 166.23 9.31933 166.265 9.094C166.247 9.16333 166.221 9.224 166.187 9.276C166.152 9.328 166.117 9.38 166.083 9.432L165.901 10.186H165.823C165.805 10.1687 165.788 10.16 165.771 10.16C165.753 10.16 165.727 10.1513 165.693 10.134C165.467 10.5327 165.251 10.9053 165.043 11.252C164.835 11.5987 164.661 11.8933 164.523 12.136C164.141 12.8293 163.777 13.5313 163.431 14.242C163.084 14.9353 162.694 15.6113 162.261 16.27C162.001 16.6513 161.741 17.0067 161.481 17.336C161.221 17.648 160.987 17.96 160.779 18.272C160.137 19.1907 159.695 19.6153 159.453 19.546C159.297 19.494 159.141 19.2947 158.985 18.948C158.846 18.6013 158.716 18.2027 158.595 17.752C158.473 17.284 158.378 16.8593 158.309 16.478C158.239 16.0793 158.205 15.8107 158.205 15.672C158.205 15.1347 158.205 14.5887 158.205 14.034C158.222 13.462 158.265 12.9073 158.335 12.37C158.404 11.902 158.525 11.3473 158.699 10.706C158.889 10.0473 159.123 9.38 159.401 8.704C159.678 8.01067 159.999 7.39533 160.363 6.858C160.744 6.32067 161.16 5.93933 161.611 5.714C161.784 5.62733 161.983 5.584 162.209 5.584C162.538 5.584 162.893 5.67933 163.275 5.87C163.656 6.04333 164.037 6.26 164.419 6.52C164.8 6.78 165.147 7.02267 165.459 7.248C165.788 6.624 165.953 6.19067 165.953 5.948H166.005C166.889 5.93067 167.461 5.91333 167.721 5.896C167.998 5.86133 168.137 5.896 168.137 6C168.137 6.01733 168.145 6.11267 168.163 6.286C168.18 6.442 168.171 6.61533 168.137 6.806C168.119 6.99667 168.085 7.20467 168.033 7.43C167.998 7.638 167.963 7.82 167.929 7.976C167.807 8.444 167.712 8.912 167.643 9.38C167.591 9.848 167.521 10.3247 167.435 10.81C167.331 11.3993 167.201 12.058 167.045 12.786C166.889 13.514 166.75 14.2593 166.629 15.022C166.525 15.7847 166.455 16.504 166.421 17.18C166.577 17.0067 166.741 16.7987 166.915 16.556C167.105 16.3133 167.391 15.932 167.773 15.412C167.79 15.3947 167.851 15.2993 167.955 15.126C168.076 14.9353 168.197 14.7447 168.319 14.554C168.44 14.3633 168.509 14.2593 168.527 14.242H168.605L169.203 15.178H169.723C169.723 15.4033 169.653 15.5853 169.515 15.724C169.393 15.8453 169.289 15.9927 169.203 16.166C169.133 16.3393 169.029 16.504 168.891 16.66C168.561 17.1107 168.223 17.5787 167.877 18.064C167.53 18.532 167.157 18.9393 166.759 19.286C166.551 19.4593 166.369 19.5547 166.213 19.572C166.057 19.6067 165.961 19.624 165.927 19.624ZM159.843 16.738C160.137 16.3393 160.389 16.01 160.597 15.75C160.805 15.4727 160.969 15.2473 161.091 15.074C161.593 14.346 161.992 13.67 162.287 13.046C162.581 12.4047 162.919 11.7547 163.301 11.096C163.439 10.836 163.613 10.5327 163.821 10.186C164.029 9.83933 164.237 9.484 164.445 9.12C164.081 8.77333 163.699 8.444 163.301 8.132C162.919 7.82 162.555 7.664 162.209 7.664C162.157 7.664 162.131 7.56867 162.131 7.378C162.131 7.18733 162.139 7.05733 162.157 6.988C161.827 7.17867 161.524 7.508 161.247 7.976C160.987 8.444 160.753 8.97267 160.545 9.562C160.337 10.1513 160.163 10.7233 160.025 11.278C159.886 11.8327 159.791 12.3007 159.739 12.682C159.669 13.1673 159.626 13.6527 159.609 14.138C159.609 14.606 159.609 15.1173 159.609 15.672H159.583C159.617 15.776 159.661 15.932 159.713 16.14C159.765 16.3307 159.808 16.53 159.843 16.738Z" fill="white"/>
<path d="M144.958 3.582L144.23 1.32H144.256C144.655 1.12933 145.036 0.921334 145.4 0.696001C145.764 0.453334 146.206 0.332001 146.726 0.332001H146.778V2.88H146.726C146.362 2.88 146.076 2.94933 145.868 3.088C145.678 3.22667 145.4 3.39133 145.036 3.582H144.958ZM142.826 18.896C142.618 19.0867 142.393 19.1993 142.15 19.234C141.908 19.286 141.7 19.208 141.526 19C141.37 18.7747 141.292 18.3673 141.292 17.778C141.292 17.1713 141.362 16.5993 141.5 16.062C141.656 15.5247 141.769 15.1 141.838 14.788C142.012 14.0253 142.15 13.3927 142.254 12.89C142.376 12.37 142.488 11.902 142.592 11.486C142.696 11.07 142.809 10.628 142.93 10.16C143.052 9.692 143.208 9.12 143.398 8.444C143.416 8.392 143.424 8.34867 143.424 8.314C143.442 8.262 143.459 8.21 143.476 8.158C142.922 8.34867 142.419 8.444 141.968 8.444V6.338C142.28 6.338 142.566 6.30333 142.826 6.234C143.104 6.16467 143.485 6.03467 143.97 5.844C144.404 5.67067 144.681 5.558 144.802 5.506C144.924 5.454 145.071 5.49733 145.244 5.636C145.452 5.82667 145.478 6.19933 145.322 6.754C145.166 7.29133 144.95 8.04533 144.672 9.016C144.464 9.744 144.291 10.3507 144.152 10.836C144.031 11.3213 143.918 11.772 143.814 12.188C143.71 12.5867 143.606 13.0287 143.502 13.514C143.416 13.982 143.294 14.5627 143.138 15.256C143.069 15.516 143 15.776 142.93 16.036C142.861 16.296 142.8 16.5473 142.748 16.79C143.06 16.634 143.355 16.4953 143.632 16.374C143.91 16.2527 144.152 16.1227 144.36 15.984L145.062 17.752C144.577 18.064 144.144 18.3067 143.762 18.48C143.381 18.636 143.069 18.7747 142.826 18.896Z" fill="white"/>
<path d="M120.406 19.962L119.002 19.442H118.976C118.941 19.338 118.924 19.26 118.924 19.208C118.924 18.9307 119.019 18.6447 119.21 18.35C119.401 18.038 119.591 17.7693 119.782 17.544C119.973 17.3013 120.077 17.1453 120.094 17.076C120.233 16.5213 120.371 16.0013 120.51 15.516C120.666 15.0133 120.787 14.5453 120.874 14.112C121.013 13.488 121.169 12.9333 121.342 12.448C121.533 11.9453 121.689 11.4773 121.81 11.044C121.914 10.6973 122.009 10.3507 122.096 10.004C122.2 9.64 122.304 9.29334 122.408 8.964C121.455 9.796 120.9 10.2467 120.744 10.316H120.692L120.094 8.444H120.12C120.293 8.35734 120.536 8.184 120.848 7.924C121.177 7.64667 121.663 7.222 122.304 6.65C122.599 6.39 122.859 6.182 123.084 6.026C123.309 5.85267 123.535 5.714 123.76 5.61C124.089 5.454 124.306 5.43667 124.41 5.558C124.531 5.67934 124.705 5.88734 124.93 6.182C125.155 6.494 125.251 6.73667 125.216 6.91C125.199 7.08334 125.129 7.196 125.008 7.248C124.887 7.3 124.791 7.30867 124.722 7.274C124.427 7.846 124.176 8.42667 123.968 9.016C123.795 9.46667 123.647 9.90867 123.526 10.342C123.422 10.7753 123.309 11.2 123.188 11.616C123.067 12.0493 122.945 12.448 122.824 12.812C122.703 13.1587 122.581 13.4967 122.46 13.826C122.911 13.202 123.361 12.6213 123.812 12.084C124.263 11.5293 124.653 10.9833 124.982 10.446C125.103 10.2553 125.294 9.952 125.554 9.536C125.814 9.12 126.109 8.678 126.438 8.21C126.785 7.742 127.114 7.326 127.426 6.962C127.738 6.58067 128.007 6.35534 128.232 6.286C128.44 6.21667 128.613 6.16467 128.752 6.13C128.908 6.09534 129.064 6.078 129.22 6.078C129.376 6.078 129.532 6.09534 129.688 6.13C129.844 6.16467 130.061 6.22534 130.338 6.312H130.39L130.026 8.314L128.7 8.262C128.475 8.33134 128.18 8.61734 127.816 9.12C127.469 9.60534 126.923 10.4287 126.178 11.59C125.589 12.526 124.982 13.3667 124.358 14.112C123.734 14.84 123.197 15.568 122.746 16.296L121.368 18.064C121.351 18.168 121.325 18.2633 121.29 18.35C121.273 18.4193 121.255 18.4887 121.238 18.558L121.212 18.532C121.212 18.8613 121.134 19.182 120.978 19.494C120.839 19.806 120.657 19.962 120.432 19.962H120.406Z" fill="white"/>
<path d="M103.12 19.572C102.773 19.572 102.4 19.5633 102.002 19.546C101.603 19.546 101.395 19.546 101.378 19.546C101.1 19.4073 100.771 19.2773 100.39 19.156C100.026 19.0347 99.705 18.8873 99.4277 18.714C99.1157 18.5233 98.8817 18.2633 98.7257 17.934C98.587 17.6047 98.535 17.154 98.5697 16.582C98.6043 15.9233 98.7083 15.2733 98.8817 14.632C99.055 13.9907 99.185 13.5313 99.2717 13.254C99.497 12.578 99.705 11.8673 99.8957 11.122C100.104 10.3767 100.364 9.64 100.676 8.912C101.005 8.184 101.456 7.51667 102.028 6.91C101.802 6.806 101.716 6.71934 101.768 6.65C101.837 6.58067 102.097 6.45934 102.548 6.286C103.102 6.078 103.7 5.93067 104.342 5.844C105 5.75734 105.763 5.714 106.63 5.714H106.682L106.656 6.234L107.15 5.688H107.176C107.574 5.688 107.774 6.00867 107.774 6.65C107.774 6.87534 107.756 7.092 107.722 7.3C107.687 7.49067 107.661 7.70734 107.644 7.95C107.609 8.53934 107.557 9.12867 107.488 9.718C107.418 10.29 107.349 10.8533 107.28 11.408C107.228 11.824 107.158 12.4047 107.072 13.15C106.985 13.878 106.855 14.58 106.682 15.256C106.976 14.8747 107.141 14.7187 107.176 14.788C107.21 14.8573 107.141 15.0653 106.968 15.412C106.812 15.7587 106.586 16.1747 106.292 16.66C105.997 17.1453 105.676 17.6307 105.33 18.116C104.983 18.584 104.636 18.9653 104.29 19.26C104.064 19.4507 103.891 19.546 103.77 19.546C103.666 19.5633 103.449 19.572 103.12 19.572ZM103.302 17.466H103.458C103.752 17.0153 104.038 16.66 104.316 16.4C104.61 16.1227 104.818 15.8973 104.94 15.724C105.078 15.4987 105.2 15.2213 105.304 14.892C105.425 14.5453 105.529 14.0947 105.616 13.54C105.72 12.968 105.815 12.2313 105.902 11.33C105.954 10.758 106.014 10.186 106.084 9.614C106.17 9.042 106.222 8.48734 106.24 7.95V7.82C104.784 7.82 103.674 7.96734 102.912 8.262L102.964 8.288H102.99C102.279 9.05067 101.776 9.89134 101.482 10.81C101.204 11.7287 100.91 12.708 100.598 13.748C100.511 14.112 100.398 14.554 100.26 15.074C100.121 15.5767 100.026 16.0793 99.9737 16.582C99.9563 16.8073 99.9563 16.972 99.9737 17.076C100.008 17.1627 100.078 17.2493 100.182 17.336C100.216 17.336 100.346 17.3533 100.572 17.388C100.797 17.4227 101.118 17.44 101.534 17.44C101.551 17.44 101.759 17.4487 102.158 17.466C102.574 17.466 102.955 17.466 103.302 17.466Z" fill="white"/>
<path d="M80.8827 19.286C80.3627 19.286 80.0247 18.896 79.8687 18.116C79.8167 17.8213 79.7907 17.4833 79.7907 17.102C79.7907 16.4953 79.8427 15.8193 79.9467 15.074C80.0681 14.3113 80.2154 13.5487 80.3887 12.786C80.5794 12.006 80.7701 11.2953 80.9607 10.654C81.1687 9.99533 81.3594 9.46667 81.5327 9.068C81.5501 9.03333 81.5674 8.99867 81.5847 8.964C81.6021 8.92933 81.6194 8.87733 81.6367 8.808H80.4147V7.222H82.3127C82.5381 6.68467 82.7634 6.13867 82.9887 5.584C83.2141 5.012 83.4047 4.53533 83.5607 4.154C83.7341 3.75533 83.8207 3.556 83.8207 3.556H85.3547C85.3547 3.83333 85.2247 4.336 84.9647 5.064C84.7047 5.77467 84.4187 6.50267 84.1067 7.248C84.6614 7.26533 85.2161 7.274 85.7707 7.274C86.3254 7.274 86.8454 7.274 87.3307 7.274H87.3827V8.86H87.3307C86.7414 8.86 86.1087 8.86 85.4327 8.86C84.7741 8.84267 84.1067 8.834 83.4307 8.834C83.3094 9.094 83.2054 9.31933 83.1187 9.51C83.0494 9.68333 82.9974 9.81333 82.9627 9.9C82.7547 10.3853 82.5381 10.9487 82.3127 11.59C82.1047 12.2313 81.9141 12.89 81.7407 13.566C81.5847 14.242 81.4547 14.892 81.3507 15.516C81.2467 16.1227 81.1947 16.6513 81.1947 17.102C81.4721 16.998 81.7841 16.842 82.1307 16.634C82.4774 16.4087 82.7807 16.218 83.0407 16.062C83.3007 15.8887 83.4307 15.8627 83.4307 15.984H84.7307C84.7307 16.244 84.5921 16.5647 84.3147 16.946C84.0374 17.31 83.6821 17.674 83.2487 18.038C82.8327 18.402 82.4081 18.7053 81.9747 18.948C81.5587 19.1733 81.1947 19.286 80.8827 19.286Z" fill="white"/>
<path d="M62.8956 19.364C62.653 19.4853 62.4276 19.4767 62.2196 19.338C62.029 19.1993 61.899 18.9913 61.8296 18.714C61.7603 18.4367 61.8036 18.1593 61.9596 17.882C62.1156 17.5873 62.2283 17.388 62.2976 17.284C62.3843 17.1627 62.4363 17.0673 62.4536 16.998C62.5576 16.5647 62.6703 16.1573 62.7916 15.776C62.913 15.3947 63.0343 15.0307 63.1556 14.684C63.3983 13.9733 63.6323 13.358 63.8576 12.838C64.1003 12.3007 64.3083 11.8067 64.4816 11.356C64.6723 10.9053 64.8196 10.446 64.9236 9.978C65.045 9.49267 65.1056 8.938 65.1056 8.314C65.1056 8.22733 65.071 8.158 65.0016 8.106C64.9323 8.03667 64.7763 7.898 64.5336 7.69C64.4296 7.81133 64.2736 8.002 64.0656 8.262C63.8576 8.522 63.615 8.81667 63.3376 9.146C62.627 9.94333 62.0203 10.6367 61.5176 11.226C61.0323 11.798 60.5903 12.37 60.1916 12.942C59.793 13.514 59.3596 14.2073 58.8916 15.022C58.597 15.5593 58.311 16.0447 58.0336 16.478C57.7563 16.9113 57.5223 17.3013 57.3316 17.648C57.2103 17.8733 57.1236 18.038 57.0716 18.142C57.037 18.2287 57.0023 18.298 56.9676 18.35C56.9503 18.4193 56.9416 18.48 56.9416 18.532C56.9416 18.584 56.9416 18.6447 56.9416 18.714C56.907 19.0433 56.7683 19.2687 56.5256 19.39C56.3003 19.5113 56.075 19.5113 55.8496 19.39C55.6416 19.286 55.5376 19.0607 55.5376 18.714V18.558C55.503 18.4367 55.503 18.272 55.5376 18.064C55.555 17.9947 55.5636 17.934 55.5636 17.882C55.581 17.83 55.5983 17.778 55.6156 17.726C55.685 17.3273 55.7803 16.946 55.9016 16.582C56.023 16.2007 56.1183 15.8713 56.1876 15.594C56.5863 14.3287 57.0023 13.1067 57.4356 11.928C57.8863 10.7493 58.3196 9.63133 58.7356 8.574C58.7876 8.43533 58.857 8.25333 58.9436 8.028C59.0303 7.80267 59.1083 7.57733 59.1776 7.352H59.1516C59.013 7.456 58.7963 7.65533 58.5016 7.95C58.207 8.22733 57.8863 8.53933 57.5396 8.886C57.193 9.21533 56.8636 9.50133 56.5516 9.744C56.257 9.98667 56.0316 10.108 55.8756 10.108H55.8236V8.548H55.8756C55.893 8.548 56.0143 8.43533 56.2396 8.21C56.465 7.98467 56.725 7.72467 57.0196 7.43C57.3316 7.118 57.6176 6.84067 57.8776 6.598C58.1376 6.35533 58.3023 6.208 58.3716 6.156C58.8743 5.82667 59.2556 5.57533 59.5156 5.402C59.793 5.22867 60.0096 5.142 60.1656 5.142C60.339 5.142 60.521 5.246 60.7116 5.454C60.9023 5.64467 60.9976 5.87 60.9976 6.13C61.015 6.39 60.9803 6.63267 60.8936 6.858C60.8243 7.08333 60.755 7.23933 60.6856 7.326H60.7116C60.6423 7.60333 60.5816 7.83733 60.5296 8.028C60.4776 8.20133 60.417 8.38333 60.3476 8.574C60.2956 8.76467 60.209 9.016 60.0876 9.328C59.8796 9.848 59.6716 10.3593 59.4636 10.862C59.273 11.3647 59.0823 11.8673 58.8916 12.37C59.4116 11.486 59.9316 10.6887 60.4516 9.978C60.9716 9.25 61.587 8.50467 62.2976 7.742C62.367 7.65533 62.497 7.49933 62.6876 7.274C62.8783 7.03133 63.095 6.77133 63.3376 6.494C63.5803 6.19933 63.8143 5.948 64.0396 5.74C64.265 5.532 64.4383 5.428 64.5596 5.428H64.6116L65.1316 5.818C65.2703 5.93933 65.4436 6.104 65.6516 6.312C65.877 6.52 66.0763 6.78867 66.2496 7.118C66.423 7.43 66.5096 7.82867 66.5096 8.314C66.5096 9.38867 66.397 10.316 66.1716 11.096C65.9463 11.8587 65.6776 12.5693 65.3656 13.228C65.0536 13.8867 64.759 14.606 64.4816 15.386C64.3256 15.802 64.1956 16.2353 64.0916 16.686C64.0916 16.686 64.109 16.7207 64.1436 16.79C64.2303 16.5127 64.3776 16.1747 64.5856 15.776C64.7936 15.3773 65.0103 14.996 65.2356 14.632C65.4783 14.268 65.6776 13.9993 65.8336 13.826C66.007 13.6353 66.0936 13.6353 66.0936 13.826H67.3936C67.3936 13.9993 67.3156 14.268 67.1596 14.632C67.0036 14.996 66.813 15.3773 66.5876 15.776C66.3623 16.1747 66.1456 16.5127 65.9376 16.79C65.747 17.0673 65.5996 17.2233 65.4956 17.258C65.4783 17.5873 65.3743 17.8473 65.1836 18.038C65.0103 18.2287 64.7416 18.4193 64.3776 18.61C64.0136 18.7833 63.5196 19.0347 62.8956 19.364Z" fill="white"/>
<path d="M39.4105 19.416C38.9945 19.416 38.5872 19.364 38.1885 19.26C37.7898 19.1733 37.4952 19.0693 37.3045 18.948C36.9925 18.7227 36.6458 18.4107 36.2645 18.012C35.8832 17.596 35.5972 17.2233 35.4065 16.894L35.3545 16.868C35.2158 16.608 35.1032 16.296 35.0165 15.932C34.9472 15.568 34.8952 15.178 34.8605 14.762C34.6698 14.8313 34.4965 14.892 34.3405 14.944C34.1845 14.9787 34.0718 14.996 34.0025 14.996H33.9505V12.916H34.0025C34.0545 12.916 34.1672 12.89 34.3405 12.838C34.5312 12.7687 34.7305 12.6993 34.9385 12.63C35.0598 11.7113 35.2505 10.7927 35.5105 9.874C35.7705 8.95533 36.0738 8.132 36.4205 7.404C36.7845 6.65867 37.1485 6.12133 37.5125 5.792C37.6512 5.67067 37.8072 5.57533 37.9805 5.506C38.1538 5.43667 38.3792 5.36733 38.6565 5.298C38.9512 5.246 39.2198 5.22 39.4625 5.22C39.8438 5.22 40.2252 5.35 40.6065 5.61C40.9878 5.85267 41.3518 6.156 41.6985 6.52C42.0452 6.86667 42.3485 7.196 42.6085 7.508C43.0765 8.028 43.2325 8.47 43.0765 8.834C42.9898 9.05934 42.8598 9.25867 42.6865 9.432C42.5305 9.588 42.4092 9.70933 42.3225 9.796C41.5252 10.7147 40.6672 11.5033 39.7485 12.162C38.8298 12.8033 37.8332 13.4187 36.7585 14.008C36.6892 14.0427 36.5158 14.1207 36.2385 14.242C36.2385 14.5713 36.2558 14.8313 36.2905 15.022C36.3252 15.2127 36.3858 15.4033 36.4725 15.594C36.4552 15.6633 36.5938 15.854 36.8885 16.166C37.2005 16.478 37.5298 16.764 37.8765 17.024L38.0845 17.18C38.1712 17.1973 38.3445 17.2233 38.6045 17.258C38.8645 17.2927 39.1332 17.31 39.4105 17.31H39.8525L41.5165 15.438L42.6085 16.764L40.6845 19H40.7105C40.4852 19.2773 40.0518 19.416 39.4105 19.416ZM36.4205 11.98C36.9925 11.72 37.5298 11.46 38.0325 11.2C38.5525 10.9227 39.0725 10.576 39.5925 10.16C40.1125 9.72667 40.6585 9.16333 41.2305 8.47L41.2565 8.418C41.0312 8.158 40.7452 7.90667 40.3985 7.664C40.0692 7.42133 39.7572 7.3 39.4625 7.3C39.3758 7.3 39.2632 7.30867 39.1245 7.326C38.9858 7.326 38.8992 7.33467 38.8645 7.352C38.6392 7.404 38.4832 7.36933 38.3965 7.248C38.3098 7.10933 38.2752 6.988 38.2925 6.884C38.0152 7.16134 37.7552 7.56867 37.5125 8.106C37.2698 8.64333 37.0532 9.25 36.8625 9.926C36.6892 10.602 36.5418 11.2867 36.4205 11.98Z" fill="white"/>
<path d="M18.526 19.26V18.454C18.3007 18.454 18.162 18.3933 18.11 18.272C18.0753 18.1507 18.084 17.9167 18.136 17.57C18.188 17.2233 18.2227 16.712 18.24 16.036C18.2747 15.1693 18.318 14.3027 18.37 13.436C18.422 12.552 18.448 11.6853 18.448 10.836C18.448 10.3333 18.4393 9.874 18.422 9.458C18.4047 9.042 18.37 8.59133 18.318 8.106C18.1793 7.03133 18.0753 5.90466 18.006 4.726C18.006 4.58733 18.006 4.44866 18.006 4.31C18.006 4.17133 17.9973 4.04133 17.98 3.92C17.8067 4.21466 17.642 4.52666 17.486 4.856C17.3473 5.168 17.2347 5.38466 17.148 5.506C16.7147 6.25133 16.3593 6.97933 16.082 7.69C15.822 8.38333 15.5447 9.03333 15.25 9.64C14.99 10.2293 14.7387 10.836 14.496 11.46C14.2707 12.084 14.0367 12.6993 13.794 13.306C13.5513 13.9127 13.3 14.4933 13.04 15.048C12.7973 15.6027 12.4853 16.1573 12.104 16.712C12.1387 16.7467 12.1647 16.7987 12.182 16.868C12.2167 16.92 12.2513 16.972 12.286 17.024L11.61 18.142C11.506 18.558 11.35 18.8353 11.142 18.974C10.9513 19.0953 10.7433 19.13 10.518 19.078C10.31 19.0433 10.1193 18.974 9.94601 18.87C9.79001 18.7487 9.68601 18.6447 9.63401 18.558C9.56468 18.402 9.54734 18.168 9.58201 17.856C9.63401 17.5267 9.62534 17.258 9.55601 17.05L9.53001 16.946C9.20068 16.322 8.88001 15.75 8.56801 15.23C8.27334 14.71 7.96134 14.1033 7.63201 13.41C7.26801 12.63 6.86068 11.8413 6.41001 11.044C5.95934 10.2467 5.48267 9.44933 4.98001 8.652C4.68534 8.20133 4.42534 7.70733 4.20001 7.17C3.99201 6.63266 3.75801 6.13 3.49801 5.662C3.41134 5.48866 3.31601 5.30666 3.21201 5.116C3.10801 4.92533 2.99534 4.73466 2.87401 4.544C2.85667 5.65333 2.82201 6.76266 2.77001 7.872C2.73534 8.964 2.70934 10.0473 2.69201 11.122C2.67468 11.4687 2.66601 11.824 2.66601 12.188C2.66601 12.5347 2.66601 12.9073 2.66601 13.306C2.66601 13.878 2.66601 14.4673 2.66601 15.074C2.68334 15.6633 2.70068 16.2787 2.71801 16.92C2.71801 17.1973 2.71801 17.5353 2.71801 17.934C2.73534 18.3153 2.74401 18.6707 2.74401 19H0.924008C0.924008 18.792 0.924008 18.4973 0.924008 18.116C0.924008 17.7347 0.915342 17.3533 0.898008 16.972C0.880675 16.348 0.863342 15.7327 0.846008 15.126C0.846008 14.502 0.846008 13.8953 0.846008 13.306C0.846008 12.9247 0.846008 12.552 0.846008 12.188C0.846008 11.824 0.854675 11.46 0.872008 11.096C0.906675 9.60533 0.950008 8.12333 1.00201 6.65C1.05401 5.17666 1.08001 3.712 1.08001 2.256H2.77001L3.55001 1.866C3.70601 2.23 3.93134 2.66333 4.22601 3.166C4.53801 3.66866 4.83268 4.17133 5.11001 4.674C5.37001 5.15933 5.59534 5.64466 5.78601 6.13C5.99401 6.61533 6.23667 7.08333 6.51401 7.534C6.96468 8.29666 7.38934 9.07666 7.78801 9.874C8.18668 10.6713 8.64601 11.4773 9.16601 12.292C9.40868 12.6733 9.69468 13.072 10.024 13.488C10.3707 13.8867 10.7087 14.3373 11.038 14.84C11.2113 14.5453 11.376 14.2247 11.532 13.878C11.7053 13.514 11.896 13.0633 12.104 12.526C12.3467 11.9367 12.5807 11.3387 12.806 10.732C13.0487 10.108 13.3 9.50133 13.56 8.912C13.9067 8.14933 14.236 7.38666 14.548 6.624C14.86 5.844 15.2067 5.12466 15.588 4.466C15.64 4.362 15.7353 4.17133 15.874 3.894C16.0127 3.61666 16.1687 3.31333 16.342 2.984C16.5327 2.65466 16.732 2.34266 16.94 2.048C17.1653 1.75333 17.3907 1.54533 17.616 1.424L19.8 3.01V3.478C19.8 3.66866 19.8 3.85933 19.8 4.05C19.8173 4.24066 19.826 4.43133 19.826 4.622C19.8607 5.05533 19.8953 5.54066 19.93 6.078C19.982 6.61533 20.0427 7.21333 20.112 7.872C20.164 8.35733 20.1987 8.82533 20.216 9.276C20.2507 9.70933 20.268 10.2293 20.268 10.836C20.268 11.7373 20.2507 12.6387 20.216 13.54C20.1813 14.424 20.1293 15.2907 20.06 16.14C20.008 16.9027 19.9733 17.518 19.956 17.986C19.956 18.4367 19.8607 18.766 19.67 18.974C19.4793 19.1647 19.098 19.26 18.526 19.26Z" fill="white"/>
<path d="M161.412 60.988C164.418 62.724 165.92 64.012 165.92 64.852C165.92 65.132 165.706 65.496 165.276 65.944C164.847 66.3733 164.287 66.8307 163.596 67.316C162.924 67.8013 162.196 68.2773 161.412 68.744C160.628 69.192 159.872 69.5747 159.144 69.892C158.435 70.2093 157.819 70.424 157.296 70.536C156.792 70.6293 156.475 70.5733 156.344 70.368C155.99 69.7333 157.128 68.6507 159.76 67.12C162.392 65.608 162.392 64.0867 159.76 62.556C158.435 61.7907 157.492 61.128 156.932 60.568C156.372 59.9893 156.176 59.5787 156.344 59.336C156.512 59.0933 157.016 59.0933 157.856 59.336C158.715 59.56 159.9 60.1107 161.412 60.988Z" fill="white"/>
<path d="M151.338 53.988C151.487 54.0813 151.45 54.4453 151.226 55.08C151.021 55.7147 150.675 56.536 150.19 57.544C149.705 58.552 149.126 59.672 148.454 60.904C147.801 62.136 147.101 63.396 146.354 64.684C145.626 65.972 144.889 67.2133 144.142 68.408C143.414 69.584 142.733 70.6387 142.098 71.572C141.463 72.4867 140.922 73.196 140.474 73.7C140.045 74.204 139.755 74.4093 139.606 74.316C139.457 74.2227 139.485 73.8587 139.69 73.224C139.914 72.5893 140.259 71.768 140.726 70.76C141.211 69.752 141.781 68.632 142.434 67.4C143.106 66.168 143.806 64.9173 144.534 63.648C145.281 62.36 146.018 61.128 146.746 59.952C147.493 58.7573 148.183 57.7027 148.818 56.788C149.453 55.8547 149.994 55.136 150.442 54.632C150.89 54.1093 151.189 53.8947 151.338 53.988Z" fill="white"/>
<path d="M123.126 73.638C121.966 73.638 121.212 72.768 120.864 71.028C120.748 70.3707 120.69 69.6167 120.69 68.766C120.69 67.4127 120.806 65.9047 121.038 64.242C121.309 62.5407 121.638 60.8393 122.024 59.138C122.45 57.398 122.875 55.8127 123.3 54.382C123.764 52.9127 124.19 51.7333 124.576 50.844C124.615 50.7667 124.654 50.6893 124.692 50.612C124.731 50.5347 124.77 50.4187 124.808 50.264H122.082V46.726H126.316C126.819 45.5273 127.322 44.3093 127.824 43.072C128.327 41.796 128.752 40.7327 129.1 39.882C129.487 38.9927 129.68 38.548 129.68 38.548H133.102C133.102 39.1667 132.812 40.288 132.232 41.912C131.652 43.4973 131.014 45.1213 130.318 46.784C131.556 46.8227 132.793 46.842 134.03 46.842C135.268 46.842 136.428 46.842 137.51 46.842H137.626V50.38H137.51C136.196 50.38 134.784 50.38 133.276 50.38C131.807 50.3413 130.318 50.322 128.81 50.322C128.54 50.902 128.308 51.4047 128.114 51.83C127.96 52.2167 127.844 52.5067 127.766 52.7C127.302 53.7827 126.819 55.0393 126.316 56.47C125.852 57.9007 125.427 59.37 125.04 60.878C124.692 62.386 124.402 63.836 124.17 65.228C123.938 66.5813 123.822 67.7607 123.822 68.766C124.441 68.534 125.137 68.186 125.91 67.722C126.684 67.2193 127.36 66.794 127.94 66.446C128.52 66.0593 128.81 66.0013 128.81 66.272H131.71C131.71 66.852 131.401 67.5673 130.782 68.418C130.164 69.23 129.371 70.042 128.404 70.854C127.476 71.666 126.529 72.3427 125.562 72.884C124.634 73.3867 123.822 73.638 123.126 73.638Z" fill="white"/>
<path d="M107.361 73.812C106.82 74.0827 106.317 74.0633 105.853 73.754C105.428 73.4447 105.138 72.9807 104.983 72.362C104.829 71.7433 104.925 71.1247 105.273 70.506C105.621 69.8487 105.873 69.404 106.027 69.172C106.221 68.9013 106.337 68.6887 106.375 68.534C106.607 67.5673 106.859 66.6587 107.129 65.808C107.4 64.9573 107.671 64.1453 107.941 63.372C108.483 61.7867 109.005 60.414 109.507 59.254C110.049 58.0553 110.513 56.9533 110.899 55.948C111.325 54.9427 111.653 53.918 111.885 52.874C112.156 51.7913 112.291 50.554 112.291 49.162C112.291 48.9687 112.214 48.814 112.059 48.698C111.905 48.5433 111.557 48.234 111.015 47.77C110.783 48.0407 110.435 48.466 109.971 49.046C109.507 49.626 108.966 50.2833 108.347 51.018C106.762 52.7967 105.409 54.3433 104.287 55.658C103.205 56.934 102.219 58.21 101.329 59.486C100.44 60.762 99.4733 62.3087 98.4293 64.126C97.772 65.3247 97.1339 66.4073 96.5153 67.374C95.8966 68.3407 95.3746 69.2107 94.9493 69.984C94.6786 70.4867 94.4853 70.854 94.3693 71.086C94.2919 71.2793 94.2146 71.434 94.1373 71.55C94.0986 71.7047 94.0793 71.84 94.0793 71.956C94.0793 72.072 94.0793 72.2073 94.0793 72.362C94.002 73.0967 93.6926 73.5993 93.1513 73.87C92.6486 74.1407 92.1459 74.1407 91.6433 73.87C91.1793 73.638 90.9473 73.1353 90.9473 72.362V72.014C90.8699 71.7433 90.8699 71.376 90.9473 70.912C90.9859 70.7573 91.0053 70.622 91.0053 70.506C91.0439 70.39 91.0826 70.274 91.1213 70.158C91.276 69.2687 91.4886 68.418 91.7593 67.606C92.03 66.7553 92.2426 66.0207 92.3973 65.402C93.2866 62.5793 94.2146 59.8533 95.1813 57.224C96.1866 54.5947 97.1533 52.1007 98.0813 49.742C98.1973 49.4327 98.3519 49.0267 98.5453 48.524C98.7386 48.0213 98.9126 47.5187 99.0673 47.016H99.0093C98.7 47.248 98.2166 47.6927 97.5593 48.35C96.9019 48.9687 96.1866 49.6647 95.4133 50.438C94.64 51.1727 93.9053 51.8107 93.2093 52.352C92.5519 52.8933 92.0493 53.164 91.7013 53.164H91.5853V49.684H91.7013C91.7399 49.684 92.0106 49.4327 92.5133 48.93C93.016 48.4273 93.5959 47.8473 94.2533 47.19C94.9493 46.494 95.5873 45.8753 96.1673 45.334C96.7473 44.7927 97.1146 44.464 97.2693 44.348C98.3906 43.6133 99.2413 43.0527 99.8213 42.666C100.44 42.2793 100.923 42.086 101.271 42.086C101.658 42.086 102.064 42.318 102.489 42.782C102.915 43.2073 103.127 43.71 103.127 44.29C103.166 44.87 103.089 45.4113 102.895 45.914C102.741 46.4167 102.586 46.7647 102.431 46.958H102.489C102.335 47.5767 102.199 48.0987 102.083 48.524C101.967 48.9107 101.832 49.3167 101.677 49.742C101.561 50.1673 101.368 50.728 101.097 51.424C100.633 52.584 100.169 53.7247 99.7053 54.846C99.28 55.9673 98.8546 57.0887 98.4293 58.21C99.5893 56.238 100.749 54.4593 101.909 52.874C103.069 51.25 104.442 49.5873 106.027 47.886C106.182 47.6927 106.472 47.3447 106.897 46.842C107.323 46.3007 107.806 45.7207 108.347 45.102C108.889 44.4447 109.411 43.884 109.913 43.42C110.416 42.956 110.803 42.724 111.073 42.724H111.189L112.349 43.594C112.659 43.8647 113.045 44.232 113.509 44.696C114.012 45.16 114.457 45.7593 114.843 46.494C115.23 47.19 115.423 48.0793 115.423 49.162C115.423 51.5593 115.172 53.628 114.669 55.368C114.167 57.0693 113.567 58.6547 112.871 60.124C112.175 61.5933 111.518 63.198 110.899 64.938C110.551 65.866 110.261 66.8327 110.029 67.838C110.029 67.838 110.068 67.9153 110.145 68.07C110.339 67.4513 110.667 66.6973 111.131 65.808C111.595 64.9187 112.079 64.068 112.581 63.256C113.123 62.444 113.567 61.8447 113.915 61.458C114.302 61.0327 114.495 61.0327 114.495 61.458H117.395C117.395 61.8447 117.221 62.444 116.873 63.256C116.525 64.068 116.1 64.9187 115.597 65.808C115.095 66.6973 114.611 67.4513 114.147 68.07C113.722 68.6887 113.393 69.0367 113.161 69.114C113.123 69.8487 112.891 70.4287 112.465 70.854C112.079 71.2793 111.479 71.7047 110.667 72.13C109.855 72.5167 108.753 73.0773 107.361 73.812Z" fill="white"/>
<path d="M78.1374 74.276C77.3641 74.276 76.5328 74.2567 75.6434 74.218C74.7541 74.218 74.2901 74.218 74.2514 74.218C73.6328 73.9087 72.8981 73.6187 72.0474 73.348C71.2354 73.0773 70.5201 72.7487 69.9014 72.362C69.2054 71.9367 68.6834 71.3567 68.3354 70.622C68.0261 69.8873 67.9101 68.882 67.9874 67.606C68.0648 66.1367 68.2968 64.6867 68.6834 63.256C69.0701 61.8253 69.3601 60.8007 69.5534 60.182C70.0561 58.674 70.5201 57.0887 70.9454 55.426C71.4094 53.7633 71.9894 52.12 72.6854 50.496C73.4201 48.872 74.4254 47.3833 75.7014 46.03C75.1988 45.798 75.0054 45.6047 75.1214 45.45C75.2761 45.2953 75.8561 45.0247 76.8614 44.638C78.0988 44.174 79.4328 43.8453 80.8634 43.652C82.3328 43.4587 84.0341 43.362 85.9674 43.362H86.0834L86.0254 44.522L87.1274 43.304H87.1854C88.0748 43.304 88.5194 44.0193 88.5194 45.45C88.5194 45.9527 88.4808 46.436 88.4034 46.9C88.3261 47.3253 88.2681 47.8087 88.2294 48.35C88.1521 49.6647 88.0361 50.9793 87.8814 52.294C87.7268 53.57 87.5721 54.8267 87.4174 56.064C87.3014 56.992 87.1468 58.2873 86.9534 59.95C86.7601 61.574 86.4701 63.14 86.0834 64.648C86.7408 63.7973 87.1081 63.4493 87.1854 63.604C87.2628 63.7587 87.1081 64.2227 86.7214 64.996C86.3734 65.7693 85.8708 66.6973 85.2134 67.78C84.5561 68.8627 83.8408 69.9453 83.0674 71.028C82.2941 72.072 81.5208 72.9227 80.7474 73.58C80.2448 74.0053 79.8581 74.218 79.5874 74.218C79.3554 74.2567 78.8721 74.276 78.1374 74.276ZM78.5434 69.578H78.8914C79.5488 68.5727 80.1868 67.78 80.8054 67.2C81.4628 66.5813 81.9268 66.0787 82.1974 65.692C82.5068 65.1893 82.7774 64.5707 83.0094 63.836C83.2801 63.0627 83.5121 62.0573 83.7054 60.82C83.9374 59.544 84.1501 57.9007 84.3434 55.89C84.4594 54.614 84.5948 53.338 84.7494 52.062C84.9428 50.786 85.0588 49.5487 85.0974 48.35V48.06C81.8494 48.06 79.3748 48.3887 77.6734 49.046L77.7894 49.104H77.8474C76.2621 50.8053 75.1408 52.6807 74.4834 54.73C73.8648 56.7793 73.2074 58.964 72.5114 61.284C72.3181 62.096 72.0668 63.082 71.7574 64.242C71.4481 65.3633 71.2354 66.4847 71.1194 67.606C71.0808 68.1087 71.0808 68.476 71.1194 68.708C71.1968 68.9013 71.3514 69.0947 71.5834 69.288C71.6608 69.288 71.9508 69.3267 72.4534 69.404C72.9561 69.4813 73.6714 69.52 74.5994 69.52C74.6381 69.52 75.1021 69.5393 75.9914 69.578C76.9194 69.578 77.7701 69.578 78.5434 69.578Z" fill="white"/>
<path d="M46.8569 75.146L43.7249 73.986H43.6669C43.5895 73.754 43.5509 73.58 43.5509 73.464C43.5509 72.8453 43.7635 72.2073 44.1889 71.55C44.6142 70.854 45.0395 70.2547 45.4649 69.752C45.8902 69.2107 46.1222 68.8627 46.1609 68.708C46.4702 67.4707 46.7795 66.3107 47.0889 65.228C47.4369 64.1067 47.7075 63.0627 47.9009 62.096C48.2102 60.704 48.5582 59.4667 48.9449 58.384C49.3702 57.2627 49.7182 56.2187 49.9889 55.252C50.2209 54.4787 50.4335 53.7053 50.6269 52.932C50.8589 52.12 51.0909 51.3467 51.3229 50.612C49.1962 52.468 47.9589 53.4733 47.6109 53.628H47.4949L46.1609 49.452H46.2189C46.6055 49.2587 47.1469 48.872 47.8429 48.292C48.5775 47.6733 49.6602 46.726 51.0909 45.45C51.7482 44.87 52.3282 44.406 52.8309 44.058C53.3335 43.6713 53.8362 43.362 54.3389 43.13C55.0735 42.782 55.5569 42.7433 55.7889 43.014C56.0595 43.2847 56.4462 43.7487 56.9489 44.406C57.4515 45.102 57.6642 45.6433 57.5869 46.03C57.5482 46.4167 57.3935 46.668 57.1229 46.784C56.8522 46.9 56.6395 46.9193 56.4849 46.842C55.8275 48.118 55.2669 49.4133 54.8029 50.728C54.4162 51.7333 54.0875 52.7193 53.8169 53.686C53.5849 54.6527 53.3335 55.6 53.0629 56.528C52.7922 57.4947 52.5215 58.384 52.2509 59.196C51.9802 59.9693 51.7095 60.7233 51.4389 61.458C52.4442 60.066 53.4495 58.7707 54.4549 57.572C55.4602 56.3347 56.3302 55.1167 57.0649 53.918C57.3355 53.4927 57.7609 52.816 58.3409 51.888C58.9209 50.96 59.5782 49.974 60.3129 48.93C61.0862 47.886 61.8209 46.958 62.5169 46.146C63.2129 45.2953 63.8122 44.7927 64.3149 44.638C64.7789 44.4833 65.1655 44.3673 65.4749 44.29C65.8229 44.2127 66.1709 44.174 66.5189 44.174C66.8669 44.174 67.2149 44.2127 67.5629 44.29C67.9109 44.3673 68.3942 44.5027 69.0129 44.696H69.1289L68.3169 49.162L65.3589 49.046C64.8562 49.2007 64.1989 49.8387 63.3869 50.96C62.6135 52.0427 61.3955 53.8793 59.7329 56.47C58.4182 58.558 57.0649 60.4333 55.6729 62.096C54.2809 63.72 53.0822 65.344 52.0769 66.968L49.0029 70.912C48.9642 71.144 48.9062 71.3567 48.8289 71.55C48.7902 71.7047 48.7515 71.8593 48.7129 72.014L48.6549 71.956C48.6549 72.6907 48.4809 73.406 48.1329 74.102C47.8235 74.798 47.4175 75.146 46.9149 75.146H46.8569Z" fill="white"/>
<path d="M19.8466 73.522C19.4212 70.6607 19.2279 67.7413 19.2666 64.764C19.3052 61.7867 19.4019 58.8867 19.5566 56.064C19.6726 53.8987 19.5372 51.7527 19.1506 49.626C18.8026 47.4993 18.5899 45.3533 18.5126 43.188C18.4739 42.2213 18.4932 41.274 18.5706 40.346C18.6866 39.418 18.7446 38.5093 18.7446 37.62H19.9046L19.8466 35.648C23.6359 35.4933 27.6186 35.3773 31.7946 35.3C35.9706 35.2227 39.9726 35.184 43.8006 35.184V39.824C40.4752 39.824 36.9759 39.8627 33.3026 39.94C29.6679 39.9787 26.1299 40.056 22.6886 40.172C22.6499 40.6747 22.6112 41.158 22.5726 41.622C22.5726 42.086 22.5726 42.5307 22.5726 42.956C22.6499 44.2707 22.7659 45.6047 22.9206 46.958C23.1139 48.2727 23.2879 49.626 23.4426 51.018C24.3319 50.9407 25.2019 50.8827 26.0526 50.844C26.9032 50.8053 27.4059 50.786 27.5606 50.786C29.3779 50.7087 31.3499 50.67 33.4766 50.67C35.6419 50.67 37.5559 50.612 39.2186 50.496L39.5086 55.136C37.7299 55.252 35.7579 55.31 33.5926 55.31C31.4272 55.31 29.4746 55.3487 27.7346 55.426C27.5799 55.426 27.0772 55.4453 26.2266 55.484C25.4146 55.5227 24.5446 55.5807 23.6166 55.658V55.832C23.4619 58.7707 23.3652 61.6707 23.3266 64.532C23.2879 67.3547 23.4619 70.1193 23.8486 72.826L19.8466 73.522Z" fill="white"/>
<path d="M6.14002 60.988C7.65202 60.1107 8.82802 59.56 9.66802 59.336C10.5267 59.0933 11.04 59.0933 11.208 59.336C11.376 59.5787 11.18 59.9893 10.62 60.568C10.06 61.128 9.11735 61.7907 7.79202 62.556C5.16002 64.0867 5.16002 65.608 7.79202 67.12C10.424 68.6507 11.5627 69.7333 11.208 70.368C11.0774 70.5733 10.7507 70.6293 10.228 70.536C9.72402 70.424 9.10802 70.2093 8.38002 69.892C7.67069 69.5747 6.92402 69.192 6.14002 68.744C5.35602 68.2773 4.61869 67.8013 3.92802 67.316C3.25602 66.8307 2.70535 66.3733 2.27602 65.944C1.84669 65.496 1.63202 65.132 1.63202 64.852C1.63202 64.012 3.13469 62.724 6.14002 60.988Z" fill="white"/>
</svg>
