<svg width="14" height="15" viewBox="0 0 14 15" fill="none" xmlns="http://www.w3.org/2000/svg">
<path d="M11.9598 2.04728C11.3148 1.39577 10.5466 0.879205 9.69985 0.527716C8.85313 0.176227 7.94491 -0.00315184 7.02814 4.19083e-05C3.18693 4.19083e-05 0.0562815 3.13069 0.0562815 6.9719C0.0562815 8.20306 0.3799 9.39904 0.984925 10.4543L0 14.0704L3.69347 13.0995C4.71357 13.6553 5.8603 13.9508 7.02814 13.9508C10.8693 13.9508 14 10.8201 14 6.97894C14 5.11461 13.2754 3.36286 11.9598 2.04728ZM7.02814 12.7689C5.98693 12.7689 4.96683 12.4875 4.07337 11.9598L3.86231 11.8332L1.66734 12.4101L2.25126 10.2714L2.11055 10.0533C1.53208 9.12957 1.22492 8.06182 1.22412 6.9719C1.22412 3.77793 3.82714 1.17492 7.0211 1.17492C8.56884 1.17492 10.0251 1.77994 11.1156 2.87743C11.6555 3.41489 12.0834 4.05418 12.3744 4.75823C12.6655 5.46228 12.8139 6.2171 12.8111 6.97894C12.8251 10.1729 10.2221 12.7689 7.02814 12.7689ZM10.208 8.43522C10.0322 8.35079 9.17387 7.92868 9.01909 7.86537C8.85729 7.80909 8.74472 7.78095 8.62512 7.94979C8.50553 8.12567 8.17487 8.51964 8.07638 8.6322C7.97789 8.7518 7.87236 8.76587 7.69648 8.67441C7.5206 8.58999 6.95779 8.40004 6.29648 7.80909C5.77588 7.34477 5.43116 6.77492 5.32563 6.59904C5.22714 6.42316 5.31156 6.3317 5.40301 6.24024C5.4804 6.16286 5.57889 6.03622 5.66332 5.93773C5.74774 5.83924 5.78291 5.76185 5.8392 5.64929C5.89548 5.52969 5.86734 5.4312 5.82513 5.34678C5.78291 5.26235 5.43116 4.40406 5.29045 4.0523C5.14975 3.71461 5.00201 3.75683 4.89648 3.74979H4.55879C4.4392 3.74979 4.25628 3.792 4.09447 3.96788C3.9397 4.14376 3.48945 4.56587 3.48945 5.42416C3.48945 6.28245 4.11558 7.1126 4.2 7.22517C4.28442 7.34477 5.43116 9.10356 7.17588 9.85632C7.59095 10.0392 7.91457 10.1448 8.16784 10.2222C8.58291 10.3558 8.96281 10.3347 9.26533 10.2925C9.60301 10.2433 10.2995 9.87039 10.4402 9.46235C10.5879 9.05431 10.5879 8.70959 10.5387 8.6322C10.4894 8.55482 10.3839 8.51964 10.208 8.43522Z" fill="#D9D9D9"/>
</svg>
