<svg width="31" height="23" viewBox="0 0 31 23" fill="none" xmlns="http://www.w3.org/2000/svg">
<path fill-rule="evenodd" clip-rule="evenodd" d="M3.27576 3.47702C3.48101 3.27177 3.73351 3.12047 4.01075 3.03618C11.4334 1.81325 19.0062 1.81325 26.4289 3.03618C26.7062 3.12046 26.9587 3.27178 27.1639 3.47702C27.3741 3.68721 27.5277 3.94693 27.6107 4.23204C28.5574 8.72258 28.5574 13.3612 27.6107 17.8517C27.5277 18.1368 27.3741 18.3965 27.1639 18.6067C26.9587 18.812 26.7062 18.9633 26.4289 19.0476C19.0063 20.2708 11.4334 20.2708 4.01076 19.0476C3.73352 18.9633 3.48101 18.812 3.27576 18.6067C3.06558 18.3965 2.91196 18.1368 2.82896 17.8517C1.88232 13.3612 1.88232 8.72258 2.82896 4.23204C2.91196 3.94693 3.06558 3.68721 3.27576 3.47702ZM26.8355 0.955646C19.1441 -0.318549 11.2955 -0.318549 3.60418 0.955646C3.56814 0.961617 3.53243 0.969448 3.4972 0.979107C2.84691 1.1574 2.25421 1.50188 1.77741 1.97868C1.30062 2.45548 0.956133 3.04817 0.777842 3.69847C0.772353 3.71849 0.767453 3.73867 0.76315 3.75898C-0.254383 8.56093 -0.254383 13.5228 0.76315 18.3248C0.767453 18.3451 0.772353 18.3653 0.777842 18.3853C0.956133 19.0356 1.30062 19.6283 1.77741 20.1051C2.25421 20.5819 2.84691 20.9264 3.4972 21.1046C3.53242 21.1143 3.56812 21.1221 3.60415 21.1281C11.2955 22.4026 19.1442 22.4026 26.8355 21.1281C26.8716 21.1221 26.9073 21.1143 26.9425 21.1046C27.5928 20.9264 28.1855 20.5819 28.6623 20.1051C29.1391 19.6283 29.4835 19.0356 29.6618 18.3853C29.6673 18.3653 29.6722 18.3451 29.6765 18.3248C30.6941 13.5228 30.6941 8.56093 29.6765 3.75898C29.6722 3.73867 29.6673 3.71849 29.6618 3.69847C29.4835 3.04817 29.1391 2.45548 28.6623 1.97868C28.1855 1.50188 27.5928 1.1574 26.9425 0.979107C26.9072 0.969448 26.8715 0.961617 26.8355 0.955646ZM12.9396 5.89549C12.6123 5.6991 12.2047 5.69396 11.8725 5.88202C11.5403 6.07009 11.335 6.42229 11.335 6.80399V15.2799C11.335 15.6616 11.5403 16.0138 11.8725 16.2019C12.2047 16.3899 12.6123 16.3848 12.9396 16.1884L20.0029 11.9505C20.322 11.759 20.5173 11.4141 20.5173 11.042C20.5173 10.6698 20.322 10.3249 20.0029 10.1334L12.9396 5.89549ZM17.3985 11.042L13.454 13.4087V8.67525L17.3985 11.042Z" fill="#D9D9D9"/>
</svg>
