<svg width="13" height="13" viewBox="0 0 13 13" fill="none" xmlns="http://www.w3.org/2000/svg">
<path d="M10.4 10.4C9.6785 10.4 9.1 10.9785 9.1 11.7C9.1 12.0448 9.23696 12.3754 9.48076 12.6192C9.72456 12.863 10.0552 13 10.4 13C10.7448 13 11.0754 12.863 11.3192 12.6192C11.563 12.3754 11.7 12.0448 11.7 11.7C11.7 11.3552 11.563 11.0246 11.3192 10.7808C11.0754 10.537 10.7448 10.4 10.4 10.4ZM0 0V1.3H1.3L3.64 6.2335L2.756 7.826C2.6585 8.008 2.6 8.2225 2.6 8.45C2.6 8.79478 2.73696 9.12544 2.98076 9.36924C3.22456 9.61304 3.55522 9.75 3.9 9.75H11.7V8.45H4.173C4.1299 8.45 4.08857 8.43288 4.05809 8.4024C4.02762 8.37193 4.0105 8.3306 4.0105 8.2875C4.0105 8.255 4.017 8.229 4.03 8.2095L4.615 7.15H9.4575C9.945 7.15 10.374 6.877 10.595 6.4805L12.922 2.275C12.9675 2.171 13 2.0605 13 1.95C13 1.77761 12.9315 1.61228 12.8096 1.49038C12.6877 1.36848 12.5224 1.3 12.35 1.3H2.7365L2.1255 0M3.9 10.4C3.1785 10.4 2.6 10.9785 2.6 11.7C2.6 12.0448 2.73696 12.3754 2.98076 12.6192C3.22456 12.863 3.55522 13 3.9 13C4.24478 13 4.57544 12.863 4.81924 12.6192C5.06304 12.3754 5.2 12.0448 5.2 11.7C5.2 11.3552 5.06304 11.0246 4.81924 10.7808C4.57544 10.537 4.24478 10.4 3.9 10.4Z" fill="#D9D9D9"/>
</svg>
