<svg width="24" height="24" viewBox="0 0 24 24" fill="none" xmlns="http://www.w3.org/2000/svg">
<path d="M11.785 8.07178C10.7431 8.07178 9.74395 8.48565 9.00724 9.22236C8.27054 9.95906 7.85666 10.9583 7.85666 12.0001C7.85666 13.042 8.27054 14.0412 9.00724 14.7779C9.74395 15.5146 10.7431 15.9284 11.785 15.9284C12.8269 15.9284 13.826 15.5146 14.5627 14.7779C15.2994 14.0412 15.7133 13.042 15.7133 12.0001C15.7133 10.9583 15.2994 9.95906 14.5627 9.22236C13.826 8.48565 12.8269 8.07178 11.785 8.07178Z" fill="white"/>
<path fill-rule="evenodd" clip-rule="evenodd" d="M7.071 0.215088C5.19565 0.215088 3.39712 0.960066 2.07105 2.28614C0.744978 3.61221 0 5.41074 0 7.28609L0 16.7141C0 18.5894 0.744978 20.388 2.07105 21.714C3.39712 23.0401 5.19565 23.7851 7.071 23.7851H16.499C18.3743 23.7851 20.1729 23.0401 21.499 21.714C22.825 20.388 23.57 18.5894 23.57 16.7141V7.28609C23.57 5.41074 22.825 3.61221 21.499 2.28614C20.1729 0.960066 18.3743 0.215088 16.499 0.215088L7.071 0.215088ZM6.28533 12.0001C6.28533 10.5415 6.86476 9.14262 7.89615 8.11124C8.92754 7.07985 10.3264 6.50042 11.785 6.50042C13.2436 6.50042 14.6425 7.07985 15.6739 8.11124C16.7052 9.14262 17.2847 10.5415 17.2847 12.0001C17.2847 13.4587 16.7052 14.8576 15.6739 15.8889C14.6425 16.9203 13.2436 17.4998 11.785 17.4998C10.3264 17.4998 8.92754 16.9203 7.89615 15.8889C6.86476 14.8576 6.28533 13.4587 6.28533 12.0001ZM17.2847 6.50042H18.856V4.92909H17.2847V6.50042Z" fill="white"/>
</svg>
