<svg width="12" height="15" viewBox="0 0 12 15" fill="none" xmlns="http://www.w3.org/2000/svg">
<path d="M6 6.25C7.38071 6.25 8.5 5.13071 8.5 3.75C8.5 2.36929 7.38071 1.25 6 1.25C4.61929 1.25 3.5 2.36929 3.5 3.75C3.5 5.13071 4.61929 6.25 6 6.25Z" stroke="white" stroke-width="1.5"/>
<path d="M10.9987 11.25C11 11.1475 11 11.0431 11 10.9375C11 9.38438 8.76125 8.125 6 8.125C3.23875 8.125 1 9.38438 1 10.9375C1 12.4906 1 13.75 6 13.75C7.39437 13.75 8.4 13.6519 9.125 13.4769" stroke="white" stroke-width="1.5" stroke-linecap="round"/>
</svg>
