<svg width="33" height="24" viewBox="0 0 33 24" fill="none" xmlns="http://www.w3.org/2000/svg">
<path d="M13.2 16.8367L21.7635 11.7857L13.2 6.73469V16.8367ZM32.274 3.65357C32.4885 4.4449 32.637 5.50561 32.736 6.85255C32.8515 8.19949 32.901 9.36122 32.901 10.3714L33 11.7857C33 15.473 32.736 18.1837 32.274 19.9179C31.8615 21.4332 30.9045 22.4097 29.4195 22.8306C28.644 23.0495 27.225 23.201 25.047 23.302C22.902 23.4199 20.9385 23.4704 19.1235 23.4704L16.5 23.5714C9.5865 23.5714 5.28 23.302 3.5805 22.8306C2.0955 22.4097 1.1385 21.4332 0.726 19.9179C0.5115 19.1265 0.363 18.0658 0.264 16.7189C0.1485 15.3719 0.0989999 14.2102 0.0989999 13.2L0 11.7857C0 8.09847 0.264 5.38776 0.726 3.65357C1.1385 2.13827 2.0955 1.16173 3.5805 0.740816C4.356 0.521939 5.775 0.370408 7.953 0.269388C10.098 0.15153 12.0615 0.10102 13.8765 0.10102L16.5 0C23.4135 0 27.72 0.269388 29.4195 0.740816C30.9045 1.16173 31.8615 2.13827 32.274 3.65357Z" fill="white"/>
</svg>
