<svg width="62" height="60" viewBox="0 0 62 60" fill="none" xmlns="http://www.w3.org/2000/svg">
<rect x="23.0002" y="12" width="30" height="30" rx="15" fill="#4D34E7"/>
<g filter="url(#filter0_bdi_11_761)">
<mask id="path-2-inside-1_11_761" fill="white">
<path fill-rule="evenodd" clip-rule="evenodd" d="M19.0002 26C19.2655 26 19.5198 25.8946 19.7074 25.7071C19.8949 25.5196 20.0002 25.2652 20.0002 25V19C20.0002 18.7348 19.8949 18.4804 19.7074 18.2929C19.5198 18.1054 19.2655 18 19.0002 18C18.735 18 18.4807 18.1054 18.2931 18.2929C18.1056 18.4804 18.0002 18.7348 18.0002 19V25C18.0002 25.2652 18.1056 25.5196 18.2931 25.7071C18.4807 25.8946 18.735 26 19.0002 26ZM41.2503 22H37.2503V25C37.2503 25.2889 37.1934 25.575 37.0828 25.8419C36.9722 26.1088 36.8102 26.3513 36.6059 26.5556C36.4016 26.7599 36.1591 26.922 35.8922 27.0325C35.6252 27.1431 35.3392 27.2 35.0503 27.2C34.7613 27.2 34.4753 27.1431 34.2084 27.0325C33.9414 26.922 33.6989 26.7599 33.4946 26.5556C33.2903 26.3513 33.1283 26.1088 33.0177 25.8419C32.9072 25.575 32.8503 25.2889 32.8503 25V22H21.2003V25C21.2003 25.5835 20.9685 26.143 20.5559 26.5556C20.1433 26.9682 19.5837 27.2 19.0003 27.2C18.4168 27.2 17.8572 26.9682 17.4446 26.5556C17.032 26.143 16.8003 25.5835 16.8003 25V22H12.8003C12.5623 21.9973 12.3262 22.0423 12.1059 22.1325C11.8856 22.2226 11.6857 22.356 11.5179 22.5247C11.3501 22.6935 11.2178 22.8942 11.1289 23.1149C11.04 23.3357 10.9962 23.572 11.0003 23.81V46.19C10.9963 46.4238 11.0384 46.656 11.1242 46.8735C11.21 47.091 11.3378 47.2894 11.5003 47.4575C11.6628 47.6256 11.8569 47.76 12.0713 47.8531C12.2858 47.9462 12.5165 47.9961 12.7503 48H41.2503C41.484 47.9961 41.7147 47.9462 41.9292 47.8531C42.1437 47.76 42.3377 47.6256 42.5002 47.4575C42.6627 47.2894 42.7905 47.091 42.8763 46.8735C42.9621 46.656 43.0042 46.4238 43.0003 46.19V23.81C43.0042 23.5762 42.9621 23.344 42.8763 23.1265C42.7905 22.909 42.6627 22.7106 42.5002 22.5425C42.3377 22.3744 42.1437 22.24 41.9292 22.1469C41.7147 22.0538 41.484 22.0039 41.2503 22ZM19.0003 42H17.0003V40H19.0003V42ZM19.0003 37H17.0003V35H19.0003V37ZM19.0003 32H17.0003V30H19.0003V32ZM25.0003 42H23.0003V40H25.0003V42ZM25.0003 37H23.0003V35H25.0003V37ZM25.0003 32H23.0003V30H25.0003V32ZM31.0003 42H29.0003V40H31.0003V42ZM31.0003 37H29.0003V35H31.0003V37ZM31.0003 32H29.0003V30H31.0003V32ZM37.0003 42H35.0003V40H37.0003V42ZM37.0003 37H35.0003V35H37.0003V37ZM37.0003 32H35.0003V30H37.0003V32ZM35.7074 25.7071C35.5198 25.8946 35.2655 26 35.0002 26C34.735 26 34.4807 25.8946 34.2931 25.7071C34.1056 25.5196 34.0002 25.2652 34.0002 25V19C34.0002 18.7348 34.1056 18.4804 34.2931 18.2929C34.4807 18.1054 34.735 18 35.0002 18C35.2655 18 35.5198 18.1054 35.7074 18.2929C35.8949 18.4804 36.0002 18.7348 36.0002 19V25C36.0002 25.2652 35.8949 25.5196 35.7074 25.7071Z"/>
</mask>
<path fill-rule="evenodd" clip-rule="evenodd" d="M19.0002 26C19.2655 26 19.5198 25.8946 19.7074 25.7071C19.8949 25.5196 20.0002 25.2652 20.0002 25V19C20.0002 18.7348 19.8949 18.4804 19.7074 18.2929C19.5198 18.1054 19.2655 18 19.0002 18C18.735 18 18.4807 18.1054 18.2931 18.2929C18.1056 18.4804 18.0002 18.7348 18.0002 19V25C18.0002 25.2652 18.1056 25.5196 18.2931 25.7071C18.4807 25.8946 18.735 26 19.0002 26ZM41.2503 22H37.2503V25C37.2503 25.2889 37.1934 25.575 37.0828 25.8419C36.9722 26.1088 36.8102 26.3513 36.6059 26.5556C36.4016 26.7599 36.1591 26.922 35.8922 27.0325C35.6252 27.1431 35.3392 27.2 35.0503 27.2C34.7613 27.2 34.4753 27.1431 34.2084 27.0325C33.9414 26.922 33.6989 26.7599 33.4946 26.5556C33.2903 26.3513 33.1283 26.1088 33.0177 25.8419C32.9072 25.575 32.8503 25.2889 32.8503 25V22H21.2003V25C21.2003 25.5835 20.9685 26.143 20.5559 26.5556C20.1433 26.9682 19.5837 27.2 19.0003 27.2C18.4168 27.2 17.8572 26.9682 17.4446 26.5556C17.032 26.143 16.8003 25.5835 16.8003 25V22H12.8003C12.5623 21.9973 12.3262 22.0423 12.1059 22.1325C11.8856 22.2226 11.6857 22.356 11.5179 22.5247C11.3501 22.6935 11.2178 22.8942 11.1289 23.1149C11.04 23.3357 10.9962 23.572 11.0003 23.81V46.19C10.9963 46.4238 11.0384 46.656 11.1242 46.8735C11.21 47.091 11.3378 47.2894 11.5003 47.4575C11.6628 47.6256 11.8569 47.76 12.0713 47.8531C12.2858 47.9462 12.5165 47.9961 12.7503 48H41.2503C41.484 47.9961 41.7147 47.9462 41.9292 47.8531C42.1437 47.76 42.3377 47.6256 42.5002 47.4575C42.6627 47.2894 42.7905 47.091 42.8763 46.8735C42.9621 46.656 43.0042 46.4238 43.0003 46.19V23.81C43.0042 23.5762 42.9621 23.344 42.8763 23.1265C42.7905 22.909 42.6627 22.7106 42.5002 22.5425C42.3377 22.3744 42.1437 22.24 41.9292 22.1469C41.7147 22.0538 41.484 22.0039 41.2503 22ZM19.0003 42H17.0003V40H19.0003V42ZM19.0003 37H17.0003V35H19.0003V37ZM19.0003 32H17.0003V30H19.0003V32ZM25.0003 42H23.0003V40H25.0003V42ZM25.0003 37H23.0003V35H25.0003V37ZM25.0003 32H23.0003V30H25.0003V32ZM31.0003 42H29.0003V40H31.0003V42ZM31.0003 37H29.0003V35H31.0003V37ZM31.0003 32H29.0003V30H31.0003V32ZM37.0003 42H35.0003V40H37.0003V42ZM37.0003 37H35.0003V35H37.0003V37ZM37.0003 32H35.0003V30H37.0003V32ZM35.7074 25.7071C35.5198 25.8946 35.2655 26 35.0002 26C34.735 26 34.4807 25.8946 34.2931 25.7071C34.1056 25.5196 34.0002 25.2652 34.0002 25V19C34.0002 18.7348 34.1056 18.4804 34.2931 18.2929C34.4807 18.1054 34.735 18 35.0002 18C35.2655 18 35.5198 18.1054 35.7074 18.2929C35.8949 18.4804 36.0002 18.7348 36.0002 19V25C36.0002 25.2652 35.8949 25.5196 35.7074 25.7071Z" fill="white" fill-opacity="0.1" shape-rendering="crispEdges"/>
<path d="M19.7074 18.2929L19.0002 19L19.7074 18.2929ZM18.2931 18.2929L19.0002 19L18.2931 18.2929ZM37.2503 22V21H36.2503V22H37.2503ZM41.2503 22L41.267 21.0001L41.2586 21H41.2503V22ZM37.0828 25.8419L36.1589 25.4592L36.1589 25.4592L37.0828 25.8419ZM36.6059 26.5556L35.8988 25.8485L35.8988 25.8485L36.6059 26.5556ZM33.4946 26.5556L32.7875 27.2627L32.7875 27.2627L33.4946 26.5556ZM33.0177 25.8419L32.0938 26.2246L32.0938 26.2246L33.0177 25.8419ZM32.8503 22H33.8503V21H32.8503V22ZM21.2003 22V21H20.2003V22H21.2003ZM20.5559 26.5556L21.263 27.2627L21.263 27.2627L20.5559 26.5556ZM16.8003 22H17.8003V21H16.8003V22ZM12.8003 22L12.7889 23H12.8003V22ZM12.1059 22.1325L12.4846 23.058L12.4846 23.058L12.1059 22.1325ZM11.5179 22.5247L12.2269 23.2299H12.2269L11.5179 22.5247ZM11.1289 23.1149L12.0565 23.4885L12.0565 23.4885L11.1289 23.1149ZM11.0003 23.81H12.0003V23.8015L12.0001 23.7931L11.0003 23.81ZM11.0003 46.19L12.0001 46.207L12.0003 46.1985V46.19H11.0003ZM11.1242 46.8735L12.0544 46.5065L11.1242 46.8735ZM12.0713 47.8531L11.6732 48.7704H11.6732L12.0713 47.8531ZM12.7503 48L12.7335 48.9999L12.7419 49H12.7503V48ZM41.2503 48V49H41.2586L41.267 48.9999L41.2503 48ZM41.9292 47.8531L41.5311 46.9358L41.5311 46.9358L41.9292 47.8531ZM42.5002 47.4575L41.7813 46.7624L41.7813 46.7624L42.5002 47.4575ZM42.8763 46.8735L41.9461 46.5065L41.9461 46.5065L42.8763 46.8735ZM43.0003 46.19H42.0003V46.1985L42.0004 46.207L43.0003 46.19ZM43.0003 23.81L42.0004 23.793L42.0003 23.8015V23.81H43.0003ZM42.8763 23.1265L41.9461 23.4935L41.9461 23.4935L42.8763 23.1265ZM42.5002 22.5425L41.7813 23.2376L41.7813 23.2376L42.5002 22.5425ZM41.9292 22.1469L41.5311 23.0642L41.5311 23.0642L41.9292 22.1469ZM17.0003 42H16.0003V43H17.0003V42ZM19.0003 42V43H20.0003V42H19.0003ZM17.0003 40V39H16.0003V40H17.0003ZM19.0003 40H20.0003V39H19.0003V40ZM17.0003 37H16.0003V38H17.0003V37ZM19.0003 37V38H20.0003V37H19.0003ZM17.0003 35V34H16.0003V35H17.0003ZM19.0003 35H20.0003V34H19.0003V35ZM17.0003 32H16.0003V33H17.0003V32ZM19.0003 32V33H20.0003V32H19.0003ZM17.0003 30V29H16.0003V30H17.0003ZM19.0003 30H20.0003V29H19.0003V30ZM23.0003 42H22.0003V43H23.0003V42ZM25.0003 42V43H26.0003V42H25.0003ZM23.0003 40V39H22.0003V40H23.0003ZM25.0003 40H26.0003V39H25.0003V40ZM23.0003 37H22.0003V38H23.0003V37ZM25.0003 37V38H26.0003V37H25.0003ZM23.0003 35V34H22.0003V35H23.0003ZM25.0003 35H26.0003V34H25.0003V35ZM23.0003 32H22.0003V33H23.0003V32ZM25.0003 32V33H26.0003V32H25.0003ZM23.0003 30V29H22.0003V30H23.0003ZM25.0003 30H26.0003V29H25.0003V30ZM29.0003 42H28.0003V43H29.0003V42ZM31.0003 42V43H32.0003V42H31.0003ZM29.0003 40V39H28.0003V40H29.0003ZM31.0003 40H32.0003V39H31.0003V40ZM29.0003 37H28.0003V38H29.0003V37ZM31.0003 37V38H32.0003V37H31.0003ZM29.0003 35V34H28.0003V35H29.0003ZM31.0003 35H32.0003V34H31.0003V35ZM29.0003 32H28.0003V33H29.0003V32ZM31.0003 32V33H32.0003V32H31.0003ZM29.0003 30V29H28.0003V30H29.0003ZM31.0003 30H32.0003V29H31.0003V30ZM35.0003 42H34.0003V43H35.0003V42ZM37.0003 42V43H38.0003V42H37.0003ZM35.0003 40V39H34.0003V40H35.0003ZM37.0003 40H38.0003V39H37.0003V40ZM35.0003 37H34.0003V38H35.0003V37ZM37.0003 37V38H38.0003V37H37.0003ZM35.0003 35V34H34.0003V35H35.0003ZM37.0003 35H38.0003V34H37.0003V35ZM35.0003 32H34.0003V33H35.0003V32ZM37.0003 32V33H38.0003V32H37.0003ZM35.0003 30V29H34.0003V30H35.0003ZM37.0003 30H38.0003V29H37.0003V30ZM34.2931 18.2929L35.0002 19L34.2931 18.2929ZM35.7074 18.2929L35.0002 19L35.7074 18.2929ZM19.0002 25V27C19.5307 27 20.0394 26.7893 20.4145 26.4142L19.0002 25ZM19.0002 25L20.4145 26.4142C20.7895 26.0391 21.0002 25.5304 21.0002 25H19.0002ZM19.0002 19V25H21.0002V19H19.0002ZM19.0002 19V19H21.0002C21.0002 18.4696 20.7895 17.9609 20.4145 17.5858L19.0002 19ZM19.0002 19V19L20.4145 17.5858C20.0394 17.2107 19.5307 17 19.0002 17V19ZM19.0002 19L19.0002 19V17C18.4698 17 17.9611 17.2107 17.586 17.5858L19.0002 19ZM19.0002 19L19.0002 19L17.586 17.5858C17.211 17.9609 17.0002 18.4696 17.0002 19H19.0002ZM19.0002 25V19H17.0002V25H19.0002ZM19.0002 25H17.0002C17.0002 25.5304 17.211 26.0391 17.586 26.4142L19.0002 25ZM19.0002 25L17.586 26.4142C17.9611 26.7893 18.4698 27 19.0002 27V25ZM37.2503 23H41.2503V21H37.2503V23ZM38.2503 25V22H36.2503V25H38.2503ZM38.0067 26.2246C38.1675 25.8363 38.2503 25.4202 38.2503 25H36.2503C36.2503 25.1576 36.2192 25.3136 36.1589 25.4592L38.0067 26.2246ZM37.313 27.2627C37.6101 26.9656 37.8459 26.6128 38.0067 26.2246L36.1589 25.4592C36.0986 25.6048 36.0102 25.7371 35.8988 25.8485L37.313 27.2627ZM36.2748 27.9564C36.6631 27.7956 37.0159 27.5599 37.313 27.2627L35.8988 25.8485C35.7874 25.96 35.6551 26.0483 35.5095 26.1086L36.2748 27.9564ZM35.0503 28.2C35.4705 28.2 35.8866 28.1172 36.2748 27.9564L35.5095 26.1086C35.3639 26.169 35.2078 26.2 35.0503 26.2V28.2ZM33.8257 27.9564C34.2139 28.1172 34.63 28.2 35.0503 28.2V26.2C34.8927 26.2 34.7366 26.169 34.591 26.1086L33.8257 27.9564ZM32.7875 27.2627C33.0847 27.5599 33.4374 27.7956 33.8257 27.9564L34.591 26.1086C34.4454 26.0483 34.3132 25.96 34.2017 25.8485L32.7875 27.2627ZM32.0938 26.2246C32.2547 26.6128 32.4904 26.9656 32.7875 27.2627L34.2017 25.8485C34.0903 25.7371 34.0019 25.6048 33.9416 25.4592L32.0938 26.2246ZM31.8503 25C31.8503 25.4202 31.933 25.8363 32.0938 26.2246L33.9416 25.4592C33.8813 25.3136 33.8503 25.1576 33.8503 25H31.8503ZM31.8503 22V25H33.8503V22H31.8503ZM21.2003 23H32.8503V21H21.2003V23ZM22.2003 25V22H20.2003V25H22.2003ZM21.263 27.2627C21.8631 26.6626 22.2003 25.8487 22.2003 25H20.2003C20.2003 25.3183 20.0738 25.6235 19.8488 25.8485L21.263 27.2627ZM19.0003 28.2C19.849 28.2 20.6629 27.8629 21.263 27.2627L19.8488 25.8485C19.6237 26.0736 19.3185 26.2 19.0003 26.2V28.2ZM16.7375 27.2627C17.3376 27.8629 18.1516 28.2 19.0003 28.2V26.2C18.682 26.2 18.3768 26.0736 18.1517 25.8485L16.7375 27.2627ZM15.8003 25C15.8003 25.8487 16.1374 26.6626 16.7375 27.2627L18.1517 25.8485C17.9267 25.6235 17.8003 25.3183 17.8003 25H15.8003ZM15.8003 22V25H17.8003V22H15.8003ZM12.8003 23H16.8003V21H12.8003V23ZM12.4846 23.058C12.5811 23.0185 12.6846 22.9987 12.7889 22.9999L12.8116 21.0001C12.44 20.9958 12.0712 21.0662 11.7272 21.2069L12.4846 23.058ZM12.2269 23.2299C12.3005 23.1559 12.3881 23.0975 12.4846 23.058L11.7272 21.2069C11.3832 21.3477 11.0709 21.556 10.8088 21.8196L12.2269 23.2299ZM12.0565 23.4885C12.0954 23.3918 12.1534 23.3038 12.2269 23.2299L10.8088 21.8196C10.5467 22.0831 10.3401 22.3966 10.2013 22.7414L12.0565 23.4885ZM12.0001 23.7931C11.9983 23.6888 12.0175 23.5852 12.0565 23.4885L10.2013 22.7414C10.0624 23.0861 9.99411 23.4553 10.0004 23.8269L12.0001 23.7931ZM12.0003 46.19V23.81H10.0003V46.19H12.0003ZM12.0544 46.5065C12.0168 46.4112 11.9984 46.3094 12.0001 46.207L10.0004 46.173C9.9942 46.5381 10.06 46.9008 10.194 47.2405L12.0544 46.5065ZM12.2192 46.7624C12.148 46.6888 12.092 46.6018 12.0544 46.5065L10.194 47.2405C10.328 47.5801 10.5276 47.8901 10.7814 48.1526L12.2192 46.7624ZM12.4695 46.9358C12.3755 46.895 12.2905 46.8361 12.2192 46.7624L10.7814 48.1526C11.0352 48.4151 11.3382 48.625 11.6732 48.7704L12.4695 46.9358ZM12.767 47.0001C12.6645 46.9984 12.5634 46.9765 12.4695 46.9358L11.6732 48.7704C12.0081 48.9158 12.3685 48.9938 12.7335 48.9999L12.767 47.0001ZM41.2503 47H12.7503V49H41.2503V47ZM41.5311 46.9358C41.4371 46.9765 41.336 46.9984 41.2335 47.0001L41.267 48.9999C41.6321 48.9938 41.9924 48.9158 42.3273 48.7704L41.5311 46.9358ZM41.7813 46.7624C41.7101 46.8361 41.625 46.895 41.5311 46.9358L42.3273 48.7704C42.6623 48.625 42.9653 48.4151 43.2191 48.1526L41.7813 46.7624ZM41.9461 46.5065C41.9085 46.6018 41.8525 46.6888 41.7813 46.7624L43.2191 48.1526C43.4729 47.8901 43.6725 47.5801 43.8065 47.2405L41.9461 46.5065ZM42.0004 46.207C42.0021 46.3094 41.9837 46.4112 41.9461 46.5065L43.8065 47.2405C43.9405 46.9008 44.0063 46.5381 44.0001 46.173L42.0004 46.207ZM42.0003 23.81V46.19H44.0003V23.81H42.0003ZM41.9461 23.4935C41.9837 23.5888 42.0021 23.6906 42.0004 23.793L44.0001 23.827C44.0063 23.4619 43.9405 23.0992 43.8065 22.7595L41.9461 23.4935ZM41.7813 23.2376C41.8525 23.3112 41.9085 23.3982 41.9461 23.4935L43.8065 22.7595C43.6725 22.4198 43.4729 22.1099 43.2191 21.8474L41.7813 23.2376ZM41.5311 23.0642C41.625 23.105 41.7101 23.1639 41.7813 23.2376L43.2191 21.8474C42.9653 21.5849 42.6623 21.3749 42.3273 21.2296L41.5311 23.0642ZM41.2335 22.9999C41.336 23.0016 41.4371 23.0234 41.5311 23.0642L42.3273 21.2296C41.9924 21.0842 41.6321 21.0062 41.267 21.0001L41.2335 22.9999ZM17.0003 43H19.0003V41H17.0003V43ZM16.0003 40V42H18.0003V40H16.0003ZM19.0003 39H17.0003V41H19.0003V39ZM20.0003 42V40H18.0003V42H20.0003ZM17.0003 38H19.0003V36H17.0003V38ZM16.0003 35V37H18.0003V35H16.0003ZM19.0003 34H17.0003V36H19.0003V34ZM20.0003 37V35H18.0003V37H20.0003ZM17.0003 33H19.0003V31H17.0003V33ZM16.0003 30V32H18.0003V30H16.0003ZM19.0003 29H17.0003V31H19.0003V29ZM20.0003 32V30H18.0003V32H20.0003ZM23.0003 43H25.0003V41H23.0003V43ZM22.0003 40V42H24.0003V40H22.0003ZM25.0003 39H23.0003V41H25.0003V39ZM26.0003 42V40H24.0003V42H26.0003ZM23.0003 38H25.0003V36H23.0003V38ZM22.0003 35V37H24.0003V35H22.0003ZM25.0003 34H23.0003V36H25.0003V34ZM26.0003 37V35H24.0003V37H26.0003ZM23.0003 33H25.0003V31H23.0003V33ZM22.0003 30V32H24.0003V30H22.0003ZM25.0003 29H23.0003V31H25.0003V29ZM26.0003 32V30H24.0003V32H26.0003ZM29.0003 43H31.0003V41H29.0003V43ZM28.0003 40V42H30.0003V40H28.0003ZM31.0003 39H29.0003V41H31.0003V39ZM32.0003 42V40H30.0003V42H32.0003ZM29.0003 38H31.0003V36H29.0003V38ZM28.0003 35V37H30.0003V35H28.0003ZM31.0003 34H29.0003V36H31.0003V34ZM32.0003 37V35H30.0003V37H32.0003ZM29.0003 33H31.0003V31H29.0003V33ZM28.0003 30V32H30.0003V30H28.0003ZM31.0003 29H29.0003V31H31.0003V29ZM32.0003 32V30H30.0003V32H32.0003ZM35.0003 43H37.0003V41H35.0003V43ZM34.0003 40V42H36.0003V40H34.0003ZM37.0003 39H35.0003V41H37.0003V39ZM38.0003 42V40H36.0003V42H38.0003ZM35.0003 38H37.0003V36H35.0003V38ZM34.0003 35V37H36.0003V35H34.0003ZM37.0003 34H35.0003V36H37.0003V34ZM38.0003 37V35H36.0003V37H38.0003ZM35.0003 33H37.0003V31H35.0003V33ZM34.0003 30V32H36.0003V30H34.0003ZM37.0003 29H35.0003V31H37.0003V29ZM38.0003 32V30H36.0003V32H38.0003ZM35.0002 27C35.5307 27 36.0394 26.7893 36.4145 26.4142L35.0002 25V27ZM33.586 26.4142C33.9611 26.7893 34.4698 27 35.0002 27V25H35.0002L33.586 26.4142ZM33.0002 25C33.0002 25.5304 33.211 26.0391 33.586 26.4142L35.0002 25H35.0002H33.0002ZM33.0002 19V25H35.0002V19H33.0002ZM33.586 17.5858C33.211 17.9609 33.0002 18.4696 33.0002 19H35.0002L35.0002 19L33.586 17.5858ZM35.0002 17C34.4698 17 33.9611 17.2107 33.586 17.5858L35.0002 19L35.0002 19V17ZM36.4145 17.5858C36.0394 17.2107 35.5307 17 35.0002 17V19V19L36.4145 17.5858ZM37.0002 19C37.0002 18.4696 36.7895 17.9609 36.4145 17.5858L35.0002 19V19H37.0002ZM37.0002 25V19H35.0002V25H37.0002ZM36.4145 26.4142C36.7895 26.0391 37.0002 25.5304 37.0002 25H35.0002L36.4145 26.4142Z" fill="#D9D9D9" fill-opacity="0.15" mask="url(#path-2-inside-1_11_761)"/>
</g>
<defs>
<filter id="filter0_bdi_11_761" x="0" y="0" width="62.0005" height="60" filterUnits="userSpaceOnUse" color-interpolation-filters="sRGB">
<feFlood flood-opacity="0" result="BackgroundImageFix"/>
<feGaussianBlur in="BackgroundImageFix" stdDeviation="5"/>
<feComposite in2="SourceAlpha" operator="in" result="effect1_backgroundBlur_11_761"/>
<feColorMatrix in="SourceAlpha" type="matrix" values="0 0 0 0 0 0 0 0 0 0 0 0 0 0 0 0 0 0 127 0" result="hardAlpha"/>
<feOffset dx="4" dy="-3"/>
<feGaussianBlur stdDeviation="7.5"/>
<feComposite in2="hardAlpha" operator="out"/>
<feColorMatrix type="matrix" values="0 0 0 0 1 0 0 0 0 1 0 0 0 0 1 0 0 0 0.1 0"/>
<feBlend mode="normal" in2="effect1_backgroundBlur_11_761" result="effect2_dropShadow_11_761"/>
<feBlend mode="normal" in="SourceGraphic" in2="effect2_dropShadow_11_761" result="shape"/>
<feColorMatrix in="SourceAlpha" type="matrix" values="0 0 0 0 0 0 0 0 0 0 0 0 0 0 0 0 0 0 127 0" result="hardAlpha"/>
<feOffset dy="-5"/>
<feGaussianBlur stdDeviation="2.5"/>
<feComposite in2="hardAlpha" operator="arithmetic" k2="-1" k3="1"/>
<feColorMatrix type="matrix" values="0 0 0 0 0.862745 0 0 0 0 0.92549 0 0 0 0 1 0 0 0 0.15 0"/>
<feBlend mode="normal" in2="shape" result="effect3_innerShadow_11_761"/>
</filter>
</defs>
</svg>
